<svg fill="white" height="409pt" viewBox="0 -32 409.6 409" width="409pt" xmlns="http://www.w3.org/2000/svg"><path d="m374.222656 117.644531c-3.09375 0-5.902344-2.121093-6.640625-5.269531-4.320312-18.378906-22.5625-31.722656-43.382812-31.722656-20.207031 0-37.851563 12.332031-42.925781 29.988281-1.039063 3.613281-4.792969 5.722656-8.445313 4.675781-3.621094-1.039062-5.714844-4.820312-4.671875-8.445312 6.738281-23.476563 29.785156-39.871094 56.046875-39.871094 27.085937 0 50.917969 17.769531 56.671875 42.257812.859375 3.667969-1.414062 7.34375-5.085938 8.207032-.527343.121094-1.050781.179687-1.566406.179687zm0 0"/><path d="m164.289062 120.859375c-3.140624 0-5.96875-2.179687-6.667968-5.371094-3.140625-14.433593-1.507813-29.367187 4.730468-43.191406 15.09375-33.4375 52.835938-49.148437 84.113282-35.035156 26.886718 12.128906 41.066406 43.082031 33.734375 73.605469-.886719 3.664062-4.585938 5.925781-8.230469 5.039062-3.667969-.878906-5.929688-4.566406-5.046875-8.230469 5.8125-24.152343-5.15625-48.535156-26.066406-57.96875-24.421875-11.03125-54.066407 1.625-66.058594 28.203125-5.019531 11.132813-6.347656 23.125-3.828125 34.667969.800781 3.683594-1.53125 7.320313-5.21875 8.125-.488281.109375-.984375.15625-1.460938.15625zm0 0"/><path d="m60.066406 117.640625c-.199218 0-.398437-.007813-.601562-.027344-3.753906-.324219-6.53125-3.636719-6.207032-7.390625 3-34.367187 29.652344-60.277344 61.992188-60.277344 21.609375 0 41.347656 11.695313 52.8125 31.277344 1.902344 3.25.808594 7.433594-2.445312 9.339844-3.238282 1.90625-7.433594.816406-9.339844-2.441406-8.988282-15.355469-24.328125-24.523438-41.027344-24.523438-25.207031 0-46.015625 20.554688-48.394531 47.8125-.300781 3.550782-3.289063 6.230469-6.789063 6.230469zm0 0"/><path d="m307.148438 120.855469h-202.015626c-3.773437 0-6.824218-3.054688-6.824218-6.824219s3.050781-6.828125 6.824218-6.828125h202.015626c3.773437 0 6.824218 3.058594 6.824218 6.828125s-3.050781 6.824219-6.824218 6.824219zm0 0"/><path d="m6.828125 161.816406c-3.773437 0-6.828125-3.054687-6.828125-6.828125v-40.957031c0-3.769531 3.054688-6.828125 6.828125-6.828125h53.230469c3.773437 0 6.828125 3.058594 6.828125 6.828125s-3.054688 6.824219-6.828125 6.824219h-46.40625v34.132812c0 3.773438-3.050782 6.828125-6.824219 6.828125zm0 0"/><path d="m402.773438 161.816406c-3.773438 0-6.828126-3.054687-6.828126-6.828125v-34.132812h-44.917968c-3.773438 0-6.828125-3.054688-6.828125-6.824219s3.054687-6.828125 6.828125-6.828125h51.746094c3.773437 0 6.828124 3.058594 6.828124 6.828125v40.957031c0 3.773438-3.054687 6.828125-6.828124 6.828125zm0 0"/><path d="m304.566406 161.816406h-202.113281c-3.773437 0-6.828125-3.054687-6.828125-6.828125 0-3.769531 3.054688-6.824219 6.828125-6.824219h202.113281c3.773438 0 6.828125 3.054688 6.828125 6.824219 0 3.773438-3.054687 6.828125-6.828125 6.828125zm0 0"/><path d="m6.828125 209.601562c-3.773437 0-6.828125-3.054687-6.828125-6.824218v-47.789063c0-3.769531 3.054688-6.824219 6.828125-6.824219h52.984375c3.773438 0 6.828125 3.054688 6.828125 6.824219 0 3.773438-3.054687 6.828125-6.828125 6.828125h-46.160156v40.960938c0 3.769531-3.050782 6.824218-6.824219 6.824218zm0 0"/><path d="m402.773438 209.601562c-3.773438 0-6.828126-3.054687-6.828126-6.824218v-40.960938h-47.785156c-3.773437 0-6.828125-3.054687-6.828125-6.828125 0-3.769531 3.054688-6.824219 6.828125-6.824219h54.613282c3.773437 0 6.828124 3.054688 6.828124 6.824219v47.789063c0 3.769531-3.054687 6.824218-6.828124 6.824218zm0 0"/><path d="m6.828125 243.738281c-3.773437 0-6.828125-3.058593-6.828125-6.828125v-40.960937c0-3.769531 3.054688-6.824219 6.828125-6.824219h52.984375c3.773438 0 6.828125 3.054688 6.828125 6.824219s-3.054687 6.828125-6.828125 6.828125h-46.160156v34.132812c0 3.769532-3.050782 6.828125-6.824219 6.828125zm0 0"/><path d="m402.773438 243.738281c-3.773438 0-6.828126-3.058593-6.828126-6.828125v-34.132812h-44.917968c-3.773438 0-6.828125-3.058594-6.828125-6.828125s3.054687-6.824219 6.828125-6.824219h51.746094c3.773437 0 6.828124 3.054688 6.828124 6.824219v40.960937c0 3.769532-3.054687 6.828125-6.828124 6.828125zm0 0"/><path d="m304.566406 202.777344h-202.113281c-3.773437 0-6.828125-3.058594-6.828125-6.828125s3.054688-6.824219 6.828125-6.824219h202.113281c3.773438 0 6.828125 3.054688 6.828125 6.824219s-3.054687 6.828125-6.828125 6.828125zm0 0"/><path d="m6.828125 284.195312c-3.773437 0-6.828125-3.054687-6.828125-6.824218v-40.460938c0-3.769531 3.054688-6.828125 6.828125-6.828125h52.984375c3.773438 0 6.828125 3.058594 6.828125 6.828125 0 3.769532-3.054687 6.828125-6.828125 6.828125h-46.160156v33.632813c0 3.769531-3.050782 6.824218-6.824219 6.824218zm0 0"/><path d="m402.773438 284.195312c-3.773438 0-6.828126-3.054687-6.828126-6.824218v-33.632813h-44.917968c-3.773438 0-6.828125-3.058593-6.828125-6.828125 0-3.769531 3.054687-6.828125 6.828125-6.828125h51.746094c3.773437 0 6.828124 3.058594 6.828124 6.828125v40.460938c0 3.769531-3.054687 6.824218-6.828124 6.824218zm0 0"/><path d="m304.566406 243.738281h-199.433594c-3.773437 0-6.824218-3.058593-6.824218-6.828125 0-3.769531 3.050781-6.828125 6.824218-6.828125h199.433594c3.773438 0 6.828125 3.058594 6.828125 6.828125 0 3.769532-3.054687 6.828125-6.828125 6.828125zm0 0"/><path d="m59.8125 325.65625h-52.984375c-3.773437 0-6.828125-3.054688-6.828125-6.824219v-40.960937c0-3.769532 3.054688-6.828125 6.828125-6.828125h52.992187c3.773438 0 6.828126 3.058593 6.828126 6.828125 0 3.769531-3.054688 6.824218-6.828126 6.824218h-46.167968v27.308594h46.160156c3.773438 0 6.828125 3.054688 6.828125 6.828125 0 3.769531-3.054687 6.824219-6.828125 6.824219zm0 0"/><path d="m304.566406 325.65625h-199.433594c-3.773437 0-6.824218-3.054688-6.824218-6.824219 0-3.773437 3.050781-6.828125 6.824218-6.828125h199.433594c3.773438 0 6.828125 3.054688 6.828125 6.828125 0 3.769531-3.054687 6.824219-6.828125 6.824219zm0 0"/><path d="m402.773438 325.65625h-51.746094c-3.773438 0-6.828125-3.054688-6.828125-6.824219 0-3.773437 3.054687-6.828125 6.828125-6.828125h44.917968v-27.308594h-44.917968c-3.773438 0-6.828125-3.054687-6.828125-6.824218 0-3.769532 3.054687-6.828125 6.828125-6.828125h51.746094c3.773437 0 6.828124 3.058593 6.828124 6.828125v40.960937c0 3.769531-3.054687 6.824219-6.828124 6.824219zm0 0"/><path d="m304.566406 284.695312h-199.433594c-3.773437 0-6.824218-3.054687-6.824218-6.824218 0-3.769532 3.050781-6.828125 6.824218-6.828125h199.433594c3.773438 0 6.828125 3.058593 6.828125 6.828125 0 3.769531-3.054687 6.824218-6.828125 6.824218zm0 0"/><path d="m132.519531 66.199219c-1.234375 0-2.460937-.335938-3.539062-.992188-1.789063-1.082031-2.980469-2.933593-3.234375-5.011719l-4.480469-36.714843c-.460937-3.742188 2.207031-7.148438 5.945313-7.605469 3.792968-.453125 7.148437 2.210938 7.601562 5.949219l3.433594 28.101562 21.511718-8.074219c3.527344-1.316406 7.460938.453126 8.792969 3.988282 1.320313 3.53125-.464843 7.46875-3.992187 8.789062l-29.640625 11.128906c-.777344.296876-1.585938.441407-2.398438.441407zm0 0"/><path d="m226.847656 45.578125c-1.792968 0-3.527344-.707031-4.8125-1.988281l-22.441406-22.328125c-2.671875-2.660157-2.683594-6.984375-.027344-9.65625 2.660156-2.664063 6.980469-2.675781 9.652344-.023438l16.296875 16.207031 14.671875-24.203124c1.960938-3.222657 6.152344-4.25 9.378906-2.296876 3.226563 1.953126 4.253906 6.152344 2.300782 9.375l-19.179688 31.625c-1.085938 1.792969-2.933594 2.984376-5.015625 3.238282-.273437.03125-.550781.050781-.824219.050781zm0 0"/><path d="m308 80.632812c-.699219 0-1.40625-.105468-2.09375-.324218l-26.441406-8.511719c-3.585938-1.15625-5.558594-5.003906-4.40625-8.589844 1.160156-3.589843 4.996094-5.546875 8.59375-4.40625l15.121094 4.867188-6.828126-31.015625c-.8125-3.679688 1.515626-7.324219 5.199219-8.132813 3.648438-.835937 7.320313 1.507813 8.136719 5.199219l9.386719 42.625c.527343 2.386719-.265625 4.871094-2.074219 6.515625-1.273438 1.160156-2.921875 1.773437-4.59375 1.773437zm0 0"/><path d="m307.132812 80.65625c-1.027343 0-2.066406-.230469-3.046874-.722656-3.371094-1.683594-4.738282-5.785156-3.050782-9.160156l17.058594-34.113282c1.691406-3.375 5.789062-4.738281 9.160156-3.054687 3.375 1.6875 4.738282 5.785156 3.050782 9.160156l-17.058594 34.117187c-1.199219 2.390626-3.605469 3.773438-6.113282 3.773438zm0 0"/><path d="m348.160156 346.136719h-41.019531c-3.773437 0-6.828125-3.054688-6.828125-6.828125v-238.933594c0-3.769531 3.054688-6.824219 6.828125-6.824219h41.019531c3.773438 0 6.828125 3.054688 6.828125 6.824219v238.933594c0 3.773437-3.054687 6.828125-6.828125 6.828125zm-34.191406-13.652344h27.363281v-225.28125h-27.363281zm0 0"/><path d="m102.460938 346.136719h-41.019532c-3.773437 0-6.828125-3.054688-6.828125-6.828125v-238.933594c0-3.769531 3.054688-6.824219 6.828125-6.824219h41.019532c3.773437 0 6.824218 3.054688 6.824218 6.824219v238.933594c0 3.773437-3.050781 6.828125-6.824218 6.828125zm-34.195313-13.652344h27.367187v-225.28125h-27.367187zm0 0"/><path d="m88.746094 127.683594c0 3.769531-3.054688 6.828125-6.824219 6.828125-3.773437 0-6.828125-3.058594-6.828125-6.828125 0-3.769532 3.054688-6.828125 6.828125-6.828125 3.769531 0 6.824219 3.058593 6.824219 6.828125zm0 0"/><path d="m88.746094 312.003906c0 3.769532-3.054688 6.828125-6.824219 6.828125-3.773437 0-6.828125-3.058593-6.828125-6.828125 0-3.769531 3.054688-6.828125 6.828125-6.828125 3.769531 0 6.824219 3.058594 6.824219 6.828125zm0 0"/><path d="m334.507812 127.683594c0 3.769531-3.058593 6.828125-6.828124 6.828125-3.769532 0-6.828126-3.058594-6.828126-6.828125 0-3.769532 3.058594-6.828125 6.828126-6.828125 3.769531 0 6.828124 3.058593 6.828124 6.828125zm0 0"/><path d="m334.507812 312.003906c0 3.769532-3.058593 6.828125-6.828124 6.828125-3.769532 0-6.828126-3.058593-6.828126-6.828125 0-3.769531 3.058594-6.828125 6.828126-6.828125 3.769531 0 6.828124 3.058594 6.828124 6.828125zm0 0"/><path d="m243.585938 83.066406c-1.867188 0-3.726563-.761718-5.074219-2.257812-4.492188-4.992188-10.40625-7.738282-16.644531-7.738282-3.773438 0-6.828126-3.054687-6.828126-6.824218 0-3.769532 3.054688-6.828125 6.828126-6.828125 10.167968 0 19.679687 4.355469 26.792968 12.257812 2.519532 2.800781 2.292969 7.117188-.507812 9.640625-1.304688 1.171875-2.9375 1.75-4.566406 1.75zm0 0"/></svg>