<?xml version="1.0"?>
<svg fill="white" xmlns="http://www.w3.org/2000/svg" id="Layer_1" data-name="Layer 1" viewBox="0 0 512 512" width="512" height="512"><path d="M371.15,167.675a73.207,73.207,0,0,0,49.337-19.062,6,6,0,1,0-8.071-8.881,61.389,61.389,0,0,1-94.2-14.352,6,6,0,0,0-10.342,6.086A73.72,73.72,0,0,0,371.15,167.675Z"/><path d="M442.92,88.487q-4.572-5.088-9.436-9.971A251,251,0,0,0,78.516,433.484,251,251,0,0,0,443.106,88.7C443.046,88.625,442.983,88.556,442.92,88.487ZM495,256A239.087,239.087,0,0,1,125.77,456.476a66.6,66.6,0,0,0,26.6-12.355,6,6,0,0,0-7.308-9.518A54.728,54.728,0,0,1,111.45,446c-.151,0-.3.012-.447.023a241.972,241.972,0,0,1-54.7-58.6,55.334,55.334,0,0,1,33.989-47.732,6,6,0,1,0-4.6-11.084,67.383,67.383,0,0,0-38.8,43.313,239.9,239.9,0,0,1-5.084-222.2,90.825,90.825,0,0,0,18.864,53.058,6,6,0,1,0,9.52-7.306A78.84,78.84,0,0,1,54.3,156.363a55.106,55.106,0,0,0,41.226,18.662c.462,0,.928-.006,1.392-.018a55.036,55.036,0,0,0,50.134-74.26,6,6,0,1,0-11.239,4.2A43.009,43.009,0,1,1,53.46,128.971,241.011,241.011,0,0,1,87,87q4.632-4.631,9.476-8.968c11.394-.069,20.7,3.377,28.393,10.561a6,6,0,0,0,8.19-8.77,50.037,50.037,0,0,0-17.216-10.618,79.755,79.755,0,0,1,84.671,34.518,6,6,0,1,0,10.076-6.518A91.487,91.487,0,0,0,133.5,55.225c-2.61,0-5.2.115-7.776.329A239.961,239.961,0,0,1,335.1,30.351,73.059,73.059,0,0,0,297.775,94.3a74.049,74.049,0,0,0,1.25,13.554,6,6,0,0,0,5.892,4.9,6.077,6.077,0,0,0,1.108-.1,6,6,0,0,0,4.8-7A62,62,0,0,1,309.775,94.3a61.12,61.12,0,0,1,40.9-57.872A238.8,238.8,0,0,1,425,87q3.859,3.861,7.512,7.869a60.969,60.969,0,0,1-4.806,23.318,6,6,0,1,0,11.051,4.675,72.7,72.7,0,0,0,4.56-15.326A237.181,237.181,0,0,1,495,256Z"/><path d="M368.7,119.9a6,6,0,0,0,0-12,12.375,12.375,0,0,1,0-24.75,6,6,0,0,0,0-12,24.375,24.375,0,0,0,0,48.75Z"/><path d="M287.85,268.125a6,6,0,0,0,0-12,12.375,12.375,0,1,1,12.375-12.375,6,6,0,0,0,12,0,24.375,24.375,0,1,0-24.375,24.375Z"/><path d="M342.85,243.75a54.512,54.512,0,0,0-5.323-23.631,6,6,0,1,0-10.833,5.161,42.6,42.6,0,0,1,4.156,18.47,43,43,0,1,1-75.574-28.071,6,6,0,1,0-9.086-7.839,55,55,0,1,0,96.66,35.91Z"/><path d="M287.85,200.75a43.03,43.03,0,0,1,27.635,10.055,6,6,0,0,0,7.718-9.19A55.053,55.053,0,0,0,287.85,188.75a6,6,0,0,0,0,12Z"/><path d="M165.921,362.076a6,6,0,0,0-3.29,7.822,55.509,55.509,0,0,1,.965,39.163,6,6,0,1,0,11.322,3.974,67.507,67.507,0,0,0-1.175-47.669A6,6,0,0,0,165.921,362.076Z"/><path d="M136.738,328.418a6,6,0,1,0-4.515,11.119,54.973,54.973,0,0,1,18.982,12.845,6,6,0,0,0,8.634-8.334A66.913,66.913,0,0,0,136.738,328.418Z"/><path d="M142.087,384.75a6,6,0,0,0-6,6,24.625,24.625,0,1,1-24.625-24.625,6,6,0,0,0,0-12,36.625,36.625,0,1,0,36.625,36.625A6,6,0,0,0,142.087,384.75Z"/><path d="M219.25,140.975a6,6,0,0,0-6,6A79.776,79.776,0,0,1,95.455,217.083a6,6,0,0,0-5.734,10.542,91.777,91.777,0,0,0,135.529-80.65A6,6,0,0,0,219.25,140.975Z"/><path d="M313.45,371.15a51.64,51.64,0,0,1,6.175-24.5,6,6,0,1,0-10.555-5.708,63.609,63.609,0,0,0,11,75.157,6,6,0,0,0,8.485-8.485A51.238,51.238,0,0,1,313.45,371.15Z"/><path d="M417.617,395.373a6,6,0,0,0-8.224,2.09,51.862,51.862,0,0,1-44.368,25.262,51.341,51.341,0,0,1-18.837-3.546,6,6,0,1,0-4.385,11.17A63.646,63.646,0,0,0,419.708,403.6,6,6,0,0,0,417.617,395.373Z"/><path d="M365.025,307.575a6,6,0,0,0,0,12A51.633,51.633,0,0,1,416.6,371.15a6,6,0,0,0,12,0A63.647,63.647,0,0,0,365.025,307.575Z"/><path d="M362.575,368.575a6,6,0,0,0,0-12,18.25,18.25,0,0,0,0,36.5,6,6,0,0,0,0-12,6.25,6.25,0,0,1,0-12.5Z"/></svg>
