<svg fill="white" height="423pt" viewBox="-9 0 423 423.32634" width="423pt" xmlns="http://www.w3.org/2000/svg"><path d="m340.269531 239.785156h-110.285156c-3.769531 0-6.824219-3.050781-6.824219-6.824218 0-3.773438 3.054688-6.828126 6.824219-6.828126h110.285156c5.710938 0 10.355469-4.648437 10.355469-10.351562 0-5.707031-4.648438-10.355469-10.355469-10.355469-3.769531 0-6.828125-3.050781-6.828125-6.824219 0-3.773437 3.058594-6.828124 6.828125-6.828124h26.621094c5.710937 0 10.351563-4.644532 10.351563-10.359376 0-5.707031-4.644532-10.351562-10.351563-10.351562h-93.148437c-2.101563 0-4.085938-.964844-5.378907-2.625-1.132812-1.457031-1.625-3.289062-1.386719-5.09375.417969-3.375 3.292969-5.980469 6.777344-5.980469h106.792969c5.707031 0 10.351563-4.648437 10.351563-10.351562 0-5.707031-4.644532-10.355469-10.351563-10.355469h-108.1875c-3.136719 0-5.867187-2.132812-6.625-5.171875-.054687-.226563-.105469-.472656-.140625-.714844-.265625-1.832031.222656-3.710937 1.378906-5.183593 1.292969-1.660157 3.277344-2.628907 5.378906-2.628907h88.539063c5.710937 0 10.351563-4.644531 10.351563-10.351562s-4.640626-10.351563-10.351563-10.351563h-107.101563c-34.136718.160156-36.859374.179688-38.796874-6.367187-1.734376-5.847657 3.03125-8.90625 8.554687-12.453125 2.871094-1.847656 6.449219-4.148438 10.191406-7.09375 9.277344-7.519532 19.242188-16.585938 29.546875-26.886719 12.996094-13 18.394532-24.105469 15.605469-32.117187-.796875-2.308594-2.015625-2.988282-2.980469-3.328126-2.894531-.992187-7.46875.066407-11.652344 2.738282-15.429687 9.828125-31.59375 18.628906-47.230468 27.132812-29.976563 16.316406-58.292969 31.726563-76.300782 51.554688-15.507812 14.800781-23.859374 34.226562-23.859374 55.058594 0 41.714843 33.933593 75.648437 75.644531 75.648437h10.652343c3.769532 0 6.824219 3.050781 6.824219 6.824219 0 3.773437-3.054687 6.828125-6.824219 6.828125h-10.65625c-49.234374 0-89.292968-40.058594-89.292968-89.300781 0-24.597657 9.851562-47.539063 27.746094-64.59375 19.214843-21.179688 48.515624-37.125 79.535156-54.011719 15.433594-8.398438 31.394531-17.085938 46.425781-26.660157 7.808594-4.972656 16.582031-6.519531 23.46875-4.113281 5.367187 1.867188 9.414063 6.035157 11.394531 11.734375 4.695313 13.492188-1.644531 29.050782-18.847656 46.257813-10.636719 10.632812-20.960938 20.019531-30.679688 27.902343-.722656.574219-1.4375 1.117188-2.140624 1.640626 3.898437-.308594 8.1875-.023438 12.976562-.046876h.695312 107.101563c13.238281 0 24.007813 10.765626 24.007813 24.003907 0 3.753906-.867188 7.308593-2.410157 10.480469 12.332031.996093 22.0625 11.347656 22.0625 23.929687 0 10.660156-6.988281 19.726563-16.621093 22.847656 1.890624 3.433594 2.96875 7.371094 2.96875 11.558594 0 13.238281-10.773438 24.011719-24.007813 24.011719h-4.957031c1.503906 3.132812 2.347656 6.648437 2.347656 10.355468-.003906 13.230469-10.773438 23.996094-24.011719 23.996094zm0 0"/><path d="m343.109375 204.871094h-68.265625c-3.769531 0-6.828125-3.050782-6.828125-6.824219s3.058594-6.828125 6.828125-6.828125h68.265625c3.769531 0 6.828125 3.054688 6.828125 6.828125s-3.058594 6.824219-6.828125 6.824219zm0 0"/><path d="m216.816406 256.179688c-13.742187 0-19.996094-21.289063-19.996094-41.066407 0-19.777343 6.253907-41.066406 19.996094-41.066406 13.738282 0 19.996094 21.285156 19.996094 41.066406s-6.257812 41.066407-19.996094 41.066407zm.550782-13.546876h.066406zm-.550782-54.605468c-2.242187 2.226562-6.34375 11.453125-6.34375 27.085937 0 15.632813 4.097656 24.859375 6.34375 27.085938 2.242188-2.226563 6.34375-11.453125 6.34375-27.085938 0-15.632812-4.101562-24.859375-6.34375-27.085937zm0 0"/><path d="m154.78125 327.40625c-2.773438 0-4.878906-.820312-6.289062-1.632812-3.277344-1.894532-8.472657-7.046876-6.378907-20.3125 1.207031-7.652344 4.613281-16.621094 9.59375-25.253907 4.984375-8.628906 11.046875-16.058593 17.066407-20.933593 10.449218-8.453126 17.507812-6.527344 20.792968-4.632813 3.277344 1.890625 8.46875 7.046875 6.375 20.3125-1.207031 7.652344-4.613281 16.617187-9.59375 25.253906 0 0 0 0-.003906 0-4.980469 8.625-11.042969 16.058594-17.0625 20.933594-5.960938 4.820313-10.816406 6.265625-14.5 6.265625zm27.792969-60.660156c-3.054688.808594-11.21875 6.746094-19.039063 20.289062-7.8125 13.539063-8.875 23.578125-8.046875 26.632813 3.050781-.808594 11.21875-6.75 19.039063-20.289063 7.8125-13.539062 8.871094-23.578125 8.046875-26.632812zm-2.136719 30.046875h.066406zm0 0"/><path d="m248.636719 342.59375c-11.226563 0-22.871094-14.988281-29.699219-30.808594-7.839844-18.152344-10.53125-40.179687 2.078125-45.632812 12.609375-5.445313 26.800781 11.621094 34.636719 29.78125 7.839844 18.152344 10.535156 40.179687-2.078125 45.632812-1.625.699219-3.273438 1.027344-4.9375 1.027344zm-22.078125-63.609375c-1.171875 2.941406-1.28125 13.042969 4.914062 27.386719 6.195313 14.347656 13.613282 21.195312 16.558594 22.363281 1.175781-2.941406 1.285156-13.042969-4.914062-27.386719-6.191407-14.347656-13.609376-21.195312-16.558594-22.363281zm0 0"/><path d="m203.164062 423.328125c-47.75 0-88.410156-39.980469-91.917968-88.75h-104.257813c-3.769531 0-6.824219-3.050781-6.824219-6.824219 0-3.773437 3.054688-6.828125 6.824219-6.828125h110.839844c3.769531 0 6.828125 3.054688 6.828125 6.828125 0 44.40625 35.953125 81.917969 78.507812 81.917969 42.550782 0 78.503907-37.511719 78.503907-81.917969 0-3.773437 3.058593-6.828125 6.828125-6.828125h110.839844c3.769531 0 6.824218 3.054688 6.824218 6.828125 0 3.773438-3.054687 6.824219-6.824218 6.824219h-104.257813c-3.503906 48.769531-44.167969 88.75-91.914063 88.75zm0 0"/></svg>