<?xml version="1.0"?>
<svg fill="gray" xmlns="http://www.w3.org/2000/svg" id="Layer_1" data-name="Layer 1" viewBox="0 0 512 512" width="512" height="512"><path d="M498.9,86.457a6,6,0,1,0-9.888,6.8c2.018,2.936,4.008,5.952,5.916,8.962a6,6,0,1,0,10.136-6.422C503.082,92.658,501.007,89.516,498.9,86.457Z"/><path d="M410.151,16.014c3.255,2.139,6.506,4.371,9.662,6.636a6,6,0,1,0,7-9.751c-3.29-2.359-6.677-4.686-10.068-6.913a6,6,0,0,0-6.59,10.028Z"/><path d="M30.044,441.771a6,6,0,0,0,.941-8.433c-2-2.5-3.988-5.08-5.907-7.654a6,6,0,1,0-9.621,7.172c2,2.682,4.069,5.364,6.154,7.973a6,6,0,0,0,8.433.942Z"/><path d="M100.544,495.945c-6.369-4.072-12.66-8.457-18.7-13.031a6,6,0,1,0-7.248,9.563c6.289,4.767,12.843,9.335,19.481,13.578a6,6,0,1,0,6.463-10.11Z"/><path d="M134.334,216H101.379a6,6,0,0,0,0,12h32.955a6,6,0,0,0,0-12Z"/><path d="M239.273,216H157.591a6,6,0,0,0,0,12h81.682a6,6,0,1,0,0-12Z"/><path d="M344.394,388h69.052a6,6,0,0,0,0-12H344.394a6,6,0,0,0,0,12Z"/><path d="M295.334,388h26.613a6,6,0,0,0,0-12H295.334a6,6,0,0,0,0,12Z"/><path d="M457.854,67.285a26.881,26.881,0,0,0,9.5-1.728c3.6,4.063,7.1,8.246,10.451,12.487a6,6,0,1,0,9.42-7.434c-3.145-3.985-6.427-7.918-9.789-11.757a27.006,27.006,0,1,0-19.58,8.432Zm0-42.115a15.046,15.046,0,0,1,8.77,27.262,5.956,5.956,0,0,0-1.989,1.2c-.008.006-.012.015-.02.021a14.888,14.888,0,0,1-6.761,1.628,15.058,15.058,0,0,1,0-30.115Z"/><path d="M84.224,464.7a6,6,0,0,0-4.1-5.692,31.98,31.98,0,0,1-20.117-20.143,6,6,0,0,0-11.385,0A31.979,31.979,0,0,1,28.505,459a6,6,0,0,0,0,11.383,31.982,31.982,0,0,1,20.117,20.144,6,6,0,0,0,11.385,0,31.982,31.982,0,0,1,20.117-20.144A6,6,0,0,0,84.224,464.7Zm-29.91,10.762A44.266,44.266,0,0,0,43.562,464.7a44.284,44.284,0,0,0,10.752-10.762A44.305,44.305,0,0,0,65.067,464.7,44.27,44.27,0,0,0,54.314,475.458Z"/><path d="M253.855,6.853A248.007,248.007,0,0,0,6,255.012,247.855,247.855,0,1,0,429.118,79.54,246.08,246.08,0,0,0,253.855,6.853ZM87.083,88.02Q92.815,82.283,98.87,77h75.381a14,14,0,1,1,0,28H110.436a25.5,25.5,0,0,0,0,51H239.273a14.5,14.5,0,0,1,0,29H28.5A235.044,235.044,0,0,1,87.083,88.02ZM26.721,319H81.137a14.5,14.5,0,0,1,0,29h-44.2A233.492,233.492,0,0,1,26.721,319ZM87.083,422a239.652,239.652,0,0,1-20.967-24h80.043a14.5,14.5,0,0,1,0,29H92.24C90.5,425.361,88.778,423.7,87.083,422ZM489.71,255.012A236.128,236.128,0,0,1,472.449,344h-192.1a13,13,0,1,1,0-26H414.618a26.5,26.5,0,0,0,0-53H346.244a13.5,13.5,0,0,1,0-27H489.105Q489.7,246.453,489.71,255.012ZM479.531,186H440.708a13.5,13.5,0,0,1,0-27h28.765A233.258,233.258,0,0,1,479.531,186Zm-38.823-39a25.5,25.5,0,0,0,0,51h42.115a236.014,236.014,0,0,1,5.134,28H346.244a25.5,25.5,0,0,0,0,51h68.374a14.5,14.5,0,0,1,0,29H280.346a25,25,0,1,0,0,50H467.194A236.512,236.512,0,0,1,253.855,491.171,233.874,233.874,0,0,1,105.973,439h40.186a26.5,26.5,0,0,0,0-53H57.519a234.091,234.091,0,0,1-15.052-26h38.67a26.5,26.5,0,0,0,0-53H23.7a239.686,239.686,0,0,1,1.431-110H239.273a26.5,26.5,0,0,0,0-53H110.436a13.5,13.5,0,0,1,0-27h63.815a26,26,0,1,0,0-52H113.719A235.733,235.733,0,0,1,420.627,88.02,236.757,236.757,0,0,1,463.709,147Z"/></svg>
