<svg fill="white" height="381pt" viewBox="-42 0 381 381.89301" width="381pt" xmlns="http://www.w3.org/2000/svg"><path d="m73.414062 338.367188c-3.773437 0-6.828124-3.054688-6.828124-6.828126v-48.753906c0-48.945312 18.261718-95.726562 51.421874-131.71875l4.648438-5.054687c2.558594-2.777344 6.878906-2.953125 9.644531-.40625 2.773438 2.554687 2.960938 6.875.40625 9.648437l-4.652343 5.058594c-30.835938 33.464844-47.816407 76.960938-47.816407 122.472656v48.753906c.003907 3.773438-3.050781 6.828126-6.824219 6.828126zm0 0"/><path d="m229.734375 338.367188c-3.773437 0-6.828125-3.054688-6.828125-6.828126v-46.050781c0-47.183593-18.070312-91.835937-50.882812-125.742187l-7.753907-8.003906c-2.621093-2.707032-2.554687-7.027344.160157-9.65625 2.699218-2.609376 7.03125-2.550782 9.652343.160156l7.753907 8.007812c35.292968 36.464844 54.726562 84.492188 54.726562 135.234375v46.050781c0 3.773438-3.054688 6.828126-6.828125 6.828126zm0 0"/><path d="m182.289062 286.738281c-3.109374 0-5.921874-2.132812-6.648437-5.292969l-28.335937-122.8125c-.84375-3.671874 1.449218-7.339843 5.121093-8.1875 3.671875-.847656 7.339844 1.445313 8.1875 5.121094l28.332031 122.8125c.847657 3.671875-1.445312 7.339844-5.117187 8.1875-.511719.121094-1.035156.171875-1.539063.171875zm0 0"/><path d="m144.007812 120.820312c-3.105468 0-5.917968-2.132812-6.648437-5.296874l-24.617187-106.726563c-.847657-3.671875 1.445312-7.339844 5.117187-8.183594 3.675781-.855469 7.339844 1.445313 8.1875 5.117188l24.621094 106.726562c.847656 3.675781-1.449219 7.339844-5.121094 8.1875-.511719.121094-1.035156.175781-1.539063.175781zm0 0"/><path d="m141.328125 102.417969c-3.074219 0-5.855469-2.085938-6.621094-5.179688l-21.9375-88.324219c-.5-2.027343-.054687-4.167968 1.226563-5.820312 1.273437-1.652344 3.234375-2.628906 5.320312-2.65625l35.589844-.4179688c3.082031-.2578122 5.933594 2.0976568 6.703125 5.1718748l20.476563 81.921875c.457031 1.804688.148437 3.726563-.851563 5.304688-.992187 1.574219-2.597656 2.671875-4.425781 3.039062l-34.132813 6.828125c-.453125.09375-.902343.132813-1.347656.132813zm-13.226563-88.425781 18.285157 73.628906 20.722656-4.140625-17.433594-69.746094zm0 0"/><path d="m146.703125 287.160156c-3.128906 0-5.863281-2.128906-6.621094-5.171875l-20.480469-81.921875c-.453124-1.808594-.148437-3.726562.851563-5.304687.996094-1.574219 2.601563-2.675781 4.429687-3.039063l34.132813-6.828125c3.566406-.726562 7.09375 1.5 7.964844 5.046875l21.941406 88.328125c.5 2.027344.050781 4.164063-1.226563 5.816407-1.273437 1.65625-3.234374 2.628906-5.320312 2.65625l-35.59375.417968c-.027344 0-.054688 0-.078125 0zm-12.121094-83.460937 17.433594 69.746093 21.574219-.257812-18.289063-73.628906zm0 0"/><path d="m280.347656 181.867188c-.507812 0-1.027344-.054688-1.539062-.175782l-111.6875-25.765625c-3.671875-.847656-5.964844-4.515625-5.121094-8.1875.847656-3.671875 4.535156-5.964843 8.1875-5.121093l111.6875 25.769531c3.671875.84375 5.964844 4.511719 5.121094 8.1875-.726563 3.160156-3.539063 5.292969-6.648438 5.292969zm0 0"/><path d="m126.214844 146.304688c-.507813 0-1.027344-.050782-1.539063-.171876l-118.511719-27.339843c-3.675781-.847657-5.96875-4.515625-5.121093-8.1875.847656-3.671875 4.53125-5.960938 8.1875-5.121094l118.511719 27.339844c3.671874.847656 5.964843 4.515625 5.121093 8.1875-.726562 3.160156-3.542969 5.292969-6.648437 5.292969zm0 0"/><path d="m89.195312 175.039062c-.554687 0-1.109374-.066406-1.65625-.207031l-81.917968-20.480469c-3.074219-.765624-5.214844-3.539062-5.175782-6.699218l.421876-35.59375c.027343-2.085938 1-4.042969 2.652343-5.316406 1.648438-1.273438 3.769531-1.730469 5.820313-1.226563l88.328125 21.9375c3.539062.878906 5.757812 4.386719 5.046875 7.964844l-6.828125 34.136719c-.367188 1.824218-1.464844 3.433593-3.039063 4.425781-1.105468.699219-2.375 1.058593-3.652344 1.058593zm-75.035156-32.621093 69.746094 17.433593 4.140625-20.71875-73.625-18.289062zm0 0"/><path d="m280.339844 181.867188c-.546875 0-1.101563-.066407-1.644532-.199219l-88.328124-21.941407c-3.539063-.878906-5.761719-4.386718-5.046876-7.964843l6.828126-34.132813c.363281-1.828125 1.464843-3.433594 3.039062-4.429687 1.585938-1.003907 3.5-1.316407 5.304688-.851563l81.921874 20.480469c3.070313.765625 5.210938 3.539063 5.171876 6.699219l-.421876 35.59375c-.027343 2.085937-1 4.046875-2.652343 5.320312-1.203125.933594-2.679688 1.425782-4.171875 1.425782zm-80.351563-33.820313 73.625 18.285156.261719-21.574219-69.746094-17.433593zm0 0"/><path d="m290.789062 381.894531h-278.429687c-2.660156 0-5.070313-1.539062-6.191406-3.953125-1.121094-2.40625-.734375-5.246094.980469-7.28125 30.011718-35.519531 85.351562-57.585937 144.425781-57.585937s114.414062 22.066406 144.425781 57.585937c1.714844 2.03125 2.101562 4.871094.980469 7.28125-1.121094 2.410156-3.53125 3.953125-6.191407 3.953125zm-262.25-13.65625h246.070313c-28.980469-25.886719-74.535156-41.511719-123.035156-41.511719s-94.054688 15.625-123.035157 41.511719zm0 0"/><path d="m148.160156 163.859375c-15.058594 0-27.304687-12.246094-27.304687-27.304687 0-15.0625 12.246093-27.308594 27.304687-27.308594s27.308594 12.246094 27.308594 27.308594c0 15.058593-12.25 27.304687-27.308594 27.304687zm0-40.960937c-7.527344 0-13.652344 6.128906-13.652344 13.65625 0 7.523437 6.125 13.652343 13.652344 13.652343s13.652344-6.128906 13.652344-13.652343c0-7.527344-6.125-13.65625-13.652344-13.65625zm0 0"/></svg>