<svg width="924" height="531" viewBox="0 0 924 531" fill="none" xmlns="http://www.w3.org/2000/svg">
<circle cx="112" cy="265" r="75" fill="white"/>
<path d="M80.794 237.972C82.282 237.972 83.638 238.2 84.862 238.656C86.11 239.112 87.106 239.796 87.85 240.708C88.618 241.62 89.002 242.772 89.002 244.164C89.002 245.7 88.558 246.972 87.67 247.98C86.806 248.964 85.714 249.78 84.394 250.428C85.306 250.908 86.17 251.472 86.986 252.12C87.826 252.744 88.498 253.488 89.002 254.352C89.53 255.192 89.794 256.188 89.794 257.34C89.794 258.756 89.41 259.992 88.642 261.048C87.898 262.104 86.842 262.92 85.474 263.496C84.13 264.072 82.57 264.36 80.794 264.36C77.914 264.36 75.682 263.748 74.098 262.524C72.538 261.3 71.758 259.62 71.758 257.484C71.758 255.708 72.238 254.28 73.198 253.2C74.158 252.12 75.322 251.244 76.69 250.572C75.538 249.852 74.554 248.988 73.738 247.98C72.946 246.948 72.55 245.664 72.55 244.128C72.55 242.76 72.934 241.62 73.702 240.708C74.47 239.796 75.478 239.112 76.726 238.656C77.998 238.2 79.354 237.972 80.794 237.972ZM80.758 241.932C79.87 241.932 79.126 242.16 78.526 242.616C77.95 243.072 77.662 243.72 77.662 244.56C77.662 245.448 77.974 246.168 78.598 246.72C79.222 247.272 79.954 247.752 80.794 248.16C81.61 247.776 82.33 247.32 82.954 246.792C83.578 246.24 83.89 245.496 83.89 244.56C83.89 243.72 83.59 243.072 82.99 242.616C82.414 242.16 81.67 241.932 80.758 241.932ZM76.798 257.16C76.798 258.096 77.122 258.864 77.77 259.464C78.442 260.064 79.426 260.364 80.722 260.364C82.066 260.364 83.074 260.076 83.746 259.5C84.418 258.924 84.754 258.156 84.754 257.196C84.754 256.548 84.562 255.984 84.178 255.504C83.794 255 83.314 254.556 82.738 254.172C82.186 253.764 81.61 253.392 81.01 253.056L80.542 252.804C79.438 253.332 78.538 253.944 77.842 254.64C77.146 255.336 76.798 256.176 76.798 257.16ZM110.36 251.148C110.36 253.908 110.06 256.272 109.46 258.24C108.884 260.208 107.936 261.72 106.616 262.776C105.32 263.832 103.568 264.36 101.36 264.36C98.2636 264.36 95.9956 263.196 94.5556 260.868C93.1156 258.516 92.3956 255.276 92.3956 251.148C92.3956 248.364 92.6836 245.988 93.2596 244.02C93.8356 242.052 94.7836 240.54 96.1036 239.484C97.4236 238.428 99.1756 237.9 101.36 237.9C104.432 237.9 106.7 239.064 108.164 241.392C109.628 243.72 110.36 246.972 110.36 251.148ZM97.7956 251.148C97.7956 254.076 98.0476 256.284 98.5516 257.772C99.0556 259.236 99.9916 259.968 101.36 259.968C102.704 259.968 103.64 259.236 104.168 257.772C104.696 256.308 104.96 254.1 104.96 251.148C104.96 248.22 104.696 246.012 104.168 244.524C103.64 243.036 102.704 242.292 101.36 242.292C99.9916 242.292 99.0556 243.036 98.5516 244.524C98.0476 246.012 97.7956 248.22 97.7956 251.148ZM128.217 237.936C130.233 237.936 131.757 238.644 132.789 240.06C133.845 241.452 134.373 243.42 134.373 245.964C134.373 248.508 133.881 250.5 132.897 251.94C131.913 253.356 130.353 254.064 128.217 254.064C126.249 254.064 124.749 253.356 123.717 251.94C122.685 250.5 122.169 248.508 122.169 245.964C122.169 243.42 122.649 241.452 123.609 240.06C124.569 238.644 126.105 237.936 128.217 237.936ZM146.469 238.296L132.213 264H128.001L142.257 238.296H146.469ZM128.253 241.608C127.149 241.608 126.597 243.072 126.597 246C126.597 248.952 127.149 250.428 128.253 250.428C129.381 250.428 129.945 248.952 129.945 246C129.945 243.072 129.381 241.608 128.253 241.608ZM146.217 248.196C148.233 248.196 149.757 248.904 150.789 250.32C151.845 251.712 152.373 253.68 152.373 256.224C152.373 258.768 151.881 260.76 150.897 262.2C149.913 263.616 148.353 264.324 146.217 264.324C144.249 264.324 142.749 263.616 141.717 262.2C140.685 260.76 140.169 258.768 140.169 256.224C140.169 253.68 140.649 251.712 141.609 250.32C142.569 248.904 144.105 248.196 146.217 248.196ZM146.253 251.868C145.149 251.868 144.597 253.332 144.597 256.26C144.597 259.212 145.149 260.688 146.253 260.688C147.381 260.688 147.945 259.212 147.945 256.26C147.945 253.332 147.381 251.868 146.253 251.868ZM67.5329 297H63.9569V279.864H73.7729V282.84H67.5329V287.256H73.3409V290.232H67.5329V297ZM82.2168 283.632C83.9768 283.632 85.3208 284.016 86.2488 284.784C87.1928 285.536 87.6648 286.696 87.6648 288.264V297H85.1688L84.4728 295.224H84.3768C83.8168 295.928 83.2248 296.44 82.6008 296.76C81.9768 297.08 81.1208 297.24 80.0328 297.24C78.8648 297.24 77.8968 296.904 77.1288 296.232C76.3608 295.544 75.9768 294.496 75.9768 293.088C75.9768 291.696 76.4648 290.672 77.4408 290.016C78.4168 289.344 79.8808 288.976 81.8328 288.912L84.1128 288.84V288.264C84.1128 287.576 83.9288 287.072 83.5608 286.752C83.2088 286.432 82.7128 286.272 82.0728 286.272C81.4328 286.272 80.8088 286.368 80.2008 286.56C79.5928 286.736 78.9848 286.96 78.3768 287.232L77.2008 284.808C77.9048 284.44 78.6808 284.152 79.5288 283.944C80.3928 283.736 81.2888 283.632 82.2168 283.632ZM82.7208 290.976C81.5688 291.008 80.7688 291.216 80.3208 291.6C79.8728 291.984 79.6488 292.488 79.6488 293.112C79.6488 293.656 79.8088 294.048 80.1288 294.288C80.4488 294.512 80.8648 294.624 81.3768 294.624C82.1448 294.624 82.7928 294.4 83.3208 293.952C83.8488 293.488 84.1128 292.84 84.1128 292.008V290.928L82.7208 290.976ZM98.6451 283.656C98.8211 283.656 99.0291 283.664 99.2691 283.68C99.5091 283.696 99.7011 283.72 99.8451 283.752L99.5811 287.112C99.4691 287.08 99.3011 287.056 99.0771 287.04C98.8691 287.008 98.6851 286.992 98.5251 286.992C97.9171 286.992 97.3331 287.104 96.7731 287.328C96.2131 287.536 95.7571 287.88 95.4051 288.36C95.0691 288.84 94.9011 289.496 94.9011 290.328V297H91.3251V283.896H94.0371L94.5651 286.104H94.7331C95.1171 285.432 95.6451 284.856 96.3171 284.376C96.9891 283.896 97.7651 283.656 98.6451 283.656ZM117.608 283.656C119.096 283.656 120.216 284.04 120.968 284.808C121.736 285.56 122.12 286.776 122.12 288.456V297H118.544V289.344C118.544 287.456 117.888 286.512 116.576 286.512C115.632 286.512 114.96 286.848 114.56 287.52C114.16 288.192 113.96 289.16 113.96 290.424V297H110.384V289.344C110.384 287.456 109.728 286.512 108.416 286.512C107.424 286.512 106.736 286.888 106.352 287.64C105.984 288.376 105.8 289.44 105.8 290.832V297H102.224V283.896H104.96L105.44 285.576H105.632C106.032 284.904 106.576 284.416 107.264 284.112C107.968 283.808 108.696 283.656 109.448 283.656C110.408 283.656 111.224 283.816 111.896 284.136C112.568 284.44 113.08 284.92 113.432 285.576H113.744C114.144 284.904 114.696 284.416 115.4 284.112C116.12 283.808 116.856 283.656 117.608 283.656ZM127.602 278.76C128.13 278.76 128.586 278.888 128.97 279.144C129.354 279.384 129.546 279.84 129.546 280.512C129.546 281.168 129.354 281.624 128.97 281.88C128.586 282.136 128.13 282.264 127.602 282.264C127.058 282.264 126.594 282.136 126.21 281.88C125.842 281.624 125.658 281.168 125.658 280.512C125.658 279.84 125.842 279.384 126.21 279.144C126.594 278.888 127.058 278.76 127.602 278.76ZM129.378 283.896V297H125.802V283.896H129.378ZM140.554 283.656C141.962 283.656 143.09 284.04 143.938 284.808C144.786 285.56 145.21 286.776 145.21 288.456V297H141.634V289.344C141.634 288.4 141.466 287.696 141.13 287.232C140.794 286.752 140.258 286.512 139.522 286.512C138.434 286.512 137.69 286.888 137.29 287.64C136.89 288.376 136.69 289.44 136.69 290.832V297H133.114V283.896H135.85L136.33 285.576H136.522C136.938 284.904 137.506 284.416 138.226 284.112C138.962 283.808 139.738 283.656 140.554 283.656ZM153.136 283.656C154.752 283.656 156.016 284.296 156.928 285.576H157.024L157.312 283.896H160.336V297.024C160.336 298.896 159.784 300.32 158.68 301.296C157.576 302.272 155.944 302.76 153.784 302.76C152.856 302.76 151.992 302.704 151.192 302.592C150.408 302.48 149.64 302.28 148.888 301.992V299.136C150.504 299.808 152.208 300.144 154 300.144C155.84 300.144 156.76 299.152 156.76 297.168V296.904C156.76 296.632 156.768 296.352 156.784 296.064C156.816 295.776 156.84 295.52 156.856 295.296H156.76C156.312 295.984 155.776 296.48 155.152 296.784C154.528 297.088 153.824 297.24 153.04 297.24C151.488 297.24 150.272 296.648 149.392 295.464C148.528 294.264 148.096 292.6 148.096 290.472C148.096 288.328 148.544 286.656 149.44 285.456C150.336 284.256 151.568 283.656 153.136 283.656ZM154.264 286.56C152.584 286.56 151.744 287.88 151.744 290.52C151.744 293.128 152.6 294.432 154.312 294.432C155.224 294.432 155.896 294.176 156.328 293.664C156.776 293.136 157 292.224 157 290.928V290.496C157 289.088 156.784 288.08 156.352 287.472C155.92 286.864 155.224 286.56 154.264 286.56Z" fill="#232323"/>
<circle cx="797" cy="103" r="75" fill="#FF5353"/>
<path d="M770.366 102H764.93V87.132C764.93 86.508 764.942 85.692 764.966 84.684C765.014 83.676 765.05 82.788 765.074 82.02C764.954 82.164 764.69 82.428 764.282 82.812C763.898 83.172 763.538 83.496 763.202 83.784L760.25 86.16L757.622 82.884L765.902 76.296H770.366V102ZM795.36 89.148C795.36 91.908 795.06 94.272 794.46 96.24C793.884 98.208 792.936 99.72 791.616 100.776C790.32 101.832 788.568 102.36 786.36 102.36C783.264 102.36 780.996 101.196 779.556 98.868C778.116 96.516 777.396 93.276 777.396 89.148C777.396 86.364 777.684 83.988 778.26 82.02C778.836 80.052 779.784 78.54 781.104 77.484C782.424 76.428 784.176 75.9 786.36 75.9C789.432 75.9 791.7 77.064 793.164 79.392C794.628 81.72 795.36 84.972 795.36 89.148ZM782.796 89.148C782.796 92.076 783.048 94.284 783.552 95.772C784.056 97.236 784.992 97.968 786.36 97.968C787.704 97.968 788.64 97.236 789.168 95.772C789.696 94.308 789.96 92.1 789.96 89.148C789.96 86.22 789.696 84.012 789.168 82.524C788.64 81.036 787.704 80.292 786.36 80.292C784.992 80.292 784.056 81.036 783.552 82.524C783.048 84.012 782.796 86.22 782.796 89.148ZM813.217 75.936C815.233 75.936 816.757 76.644 817.789 78.06C818.845 79.452 819.373 81.42 819.373 83.964C819.373 86.508 818.881 88.5 817.897 89.94C816.913 91.356 815.353 92.064 813.217 92.064C811.249 92.064 809.749 91.356 808.717 89.94C807.685 88.5 807.169 86.508 807.169 83.964C807.169 81.42 807.649 79.452 808.609 78.06C809.569 76.644 811.105 75.936 813.217 75.936ZM831.469 76.296L817.213 102H813.001L827.257 76.296H831.469ZM813.253 79.608C812.149 79.608 811.597 81.072 811.597 84C811.597 86.952 812.149 88.428 813.253 88.428C814.381 88.428 814.945 86.952 814.945 84C814.945 81.072 814.381 79.608 813.253 79.608ZM831.217 86.196C833.233 86.196 834.757 86.904 835.789 88.32C836.845 89.712 837.373 91.68 837.373 94.224C837.373 96.768 836.881 98.76 835.897 100.2C834.913 101.616 833.353 102.324 831.217 102.324C829.249 102.324 827.749 101.616 826.717 100.2C825.685 98.76 825.169 96.768 825.169 94.224C825.169 91.68 825.649 89.712 826.609 88.32C827.569 86.904 829.105 86.196 831.217 86.196ZM831.253 89.868C830.149 89.868 829.597 91.332 829.597 94.26C829.597 97.212 830.149 98.688 831.253 98.688C832.381 98.688 832.945 97.212 832.945 94.26C832.945 91.332 832.381 89.868 831.253 89.868ZM746.065 128.424C746.065 130.6 745.489 132.28 744.337 133.464C743.201 134.648 741.649 135.24 739.681 135.24C738.465 135.24 737.377 134.976 736.417 134.448C735.473 133.92 734.729 133.152 734.185 132.144C733.641 131.12 733.369 129.88 733.369 128.424C733.369 126.248 733.937 124.576 735.073 123.408C736.209 122.24 737.769 121.656 739.753 121.656C740.985 121.656 742.073 121.92 743.017 122.448C743.961 122.976 744.705 123.744 745.249 124.752C745.793 125.744 746.065 126.968 746.065 128.424ZM737.017 128.424C737.017 129.72 737.225 130.704 737.641 131.376C738.073 132.032 738.769 132.36 739.729 132.36C740.673 132.36 741.353 132.032 741.769 131.376C742.201 130.704 742.417 129.72 742.417 128.424C742.417 127.128 742.201 126.16 741.769 125.52C741.353 124.864 740.665 124.536 739.705 124.536C738.761 124.536 738.073 124.864 737.641 125.52C737.225 126.16 737.017 127.128 737.017 128.424ZM756.316 121.656C757.788 121.656 758.98 122.232 759.892 123.384C760.804 124.52 761.26 126.2 761.26 128.424C761.26 130.648 760.788 132.344 759.844 133.512C758.9 134.664 757.692 135.24 756.22 135.24C755.276 135.24 754.524 135.072 753.964 134.736C753.404 134.384 752.948 133.992 752.596 133.56H752.404C752.532 134.232 752.596 134.872 752.596 135.48V140.76H749.02V121.896H751.924L752.428 123.6H752.596C752.948 123.072 753.42 122.616 754.012 122.232C754.604 121.848 755.372 121.656 756.316 121.656ZM755.164 124.512C754.236 124.512 753.58 124.8 753.196 125.376C752.828 125.952 752.628 126.832 752.596 128.016V128.4C752.596 129.664 752.78 130.64 753.148 131.328C753.532 132 754.22 132.336 755.212 132.336C756.028 132.336 756.628 132 757.012 131.328C757.412 130.64 757.612 129.656 757.612 128.376C757.612 125.8 756.796 124.512 755.164 124.512ZM769.608 121.656C771.416 121.656 772.848 122.176 773.904 123.216C774.96 124.24 775.488 125.704 775.488 127.608V129.336H767.04C767.072 130.344 767.368 131.136 767.928 131.712C768.504 132.288 769.296 132.576 770.304 132.576C771.152 132.576 771.92 132.496 772.608 132.336C773.296 132.16 774.008 131.896 774.744 131.544V134.304C774.104 134.624 773.424 134.856 772.704 135C772 135.16 771.144 135.24 770.136 135.24C768.824 135.24 767.664 135 766.656 134.52C765.648 134.024 764.856 133.28 764.28 132.288C763.704 131.296 763.416 130.048 763.416 128.544C763.416 127.008 763.672 125.736 764.184 124.728C764.712 123.704 765.44 122.936 766.368 122.424C767.296 121.912 768.376 121.656 769.608 121.656ZM769.632 124.2C768.944 124.2 768.368 124.424 767.904 124.872C767.456 125.32 767.192 126.016 767.112 126.96H772.128C772.112 126.16 771.904 125.504 771.504 124.992C771.104 124.464 770.48 124.2 769.632 124.2ZM785.708 121.656C785.884 121.656 786.092 121.664 786.332 121.68C786.572 121.696 786.764 121.72 786.908 121.752L786.644 125.112C786.532 125.08 786.364 125.056 786.14 125.04C785.932 125.008 785.748 124.992 785.588 124.992C784.98 124.992 784.396 125.104 783.836 125.328C783.276 125.536 782.82 125.88 782.468 126.36C782.132 126.84 781.964 127.496 781.964 128.328V135H778.388V121.896H781.1L781.628 124.104H781.796C782.18 123.432 782.708 122.856 783.38 122.376C784.052 121.896 784.828 121.656 785.708 121.656ZM794.193 121.632C795.953 121.632 797.297 122.016 798.225 122.784C799.169 123.536 799.641 124.696 799.641 126.264V135H797.145L796.449 133.224H796.353C795.793 133.928 795.201 134.44 794.577 134.76C793.953 135.08 793.097 135.24 792.009 135.24C790.841 135.24 789.873 134.904 789.105 134.232C788.337 133.544 787.953 132.496 787.953 131.088C787.953 129.696 788.441 128.672 789.417 128.016C790.393 127.344 791.857 126.976 793.809 126.912L796.089 126.84V126.264C796.089 125.576 795.905 125.072 795.537 124.752C795.185 124.432 794.689 124.272 794.049 124.272C793.409 124.272 792.785 124.368 792.177 124.56C791.569 124.736 790.961 124.96 790.353 125.232L789.177 122.808C789.881 122.44 790.657 122.152 791.505 121.944C792.369 121.736 793.265 121.632 794.193 121.632ZM794.697 128.976C793.545 129.008 792.745 129.216 792.297 129.6C791.849 129.984 791.625 130.488 791.625 131.112C791.625 131.656 791.785 132.048 792.105 132.288C792.425 132.512 792.841 132.624 793.353 132.624C794.121 132.624 794.769 132.4 795.297 131.952C795.825 131.488 796.089 130.84 796.089 130.008V128.928L794.697 128.976ZM808.822 132.384C809.222 132.384 809.606 132.344 809.974 132.264C810.342 132.184 810.71 132.088 811.078 131.976V134.64C810.694 134.8 810.214 134.936 809.638 135.048C809.078 135.176 808.462 135.24 807.79 135.24C807.006 135.24 806.302 135.112 805.678 134.856C805.07 134.6 804.582 134.16 804.214 133.536C803.862 132.896 803.686 132.016 803.686 130.896V124.584H801.982V123.072L803.95 121.872L804.982 119.112H807.262V121.896H810.934V124.584H807.262V130.896C807.262 131.392 807.406 131.768 807.694 132.024C807.982 132.264 808.358 132.384 808.822 132.384ZM815.508 116.76C816.036 116.76 816.492 116.888 816.876 117.144C817.26 117.384 817.452 117.84 817.452 118.512C817.452 119.168 817.26 119.624 816.876 119.88C816.492 120.136 816.036 120.264 815.508 120.264C814.964 120.264 814.5 120.136 814.116 119.88C813.748 119.624 813.564 119.168 813.564 118.512C813.564 117.84 813.748 117.384 814.116 117.144C814.5 116.888 814.964 116.76 815.508 116.76ZM817.284 121.896V135H813.708V121.896H817.284ZM832.924 128.424C832.924 130.6 832.348 132.28 831.196 133.464C830.06 134.648 828.508 135.24 826.54 135.24C825.324 135.24 824.236 134.976 823.276 134.448C822.332 133.92 821.588 133.152 821.044 132.144C820.5 131.12 820.228 129.88 820.228 128.424C820.228 126.248 820.796 124.576 821.932 123.408C823.068 122.24 824.628 121.656 826.612 121.656C827.844 121.656 828.932 121.92 829.876 122.448C830.82 122.976 831.564 123.744 832.108 124.752C832.652 125.744 832.924 126.968 832.924 128.424ZM823.876 128.424C823.876 129.72 824.084 130.704 824.5 131.376C824.932 132.032 825.628 132.36 826.588 132.36C827.532 132.36 828.212 132.032 828.628 131.376C829.06 130.704 829.276 129.72 829.276 128.424C829.276 127.128 829.06 126.16 828.628 125.52C828.212 124.864 827.524 124.536 826.564 124.536C825.62 124.536 824.932 124.864 824.5 125.52C824.084 126.16 823.876 127.128 823.876 128.424ZM843.32 121.656C844.728 121.656 845.856 122.04 846.704 122.808C847.552 123.56 847.976 124.776 847.976 126.456V135H844.4V127.344C844.4 126.4 844.232 125.696 843.896 125.232C843.56 124.752 843.024 124.512 842.288 124.512C841.2 124.512 840.456 124.888 840.056 125.64C839.656 126.376 839.456 127.44 839.456 128.832V135H835.88V121.896H838.616L839.096 123.576H839.288C839.704 122.904 840.272 122.416 840.992 122.112C841.728 121.808 842.504 121.656 843.32 121.656ZM860.797 131.112C860.797 132.44 860.325 133.464 859.381 134.184C858.453 134.888 857.061 135.24 855.205 135.24C854.293 135.24 853.509 135.176 852.853 135.048C852.197 134.936 851.541 134.744 850.885 134.472V131.52C851.589 131.84 852.349 132.104 853.165 132.312C853.981 132.52 854.701 132.624 855.325 132.624C856.029 132.624 856.525 132.52 856.813 132.312C857.117 132.104 857.269 131.832 857.269 131.496C857.269 131.272 857.205 131.072 857.077 130.896C856.965 130.72 856.709 130.52 856.309 130.296C855.909 130.072 855.285 129.784 854.437 129.432C853.621 129.08 852.949 128.736 852.421 128.4C851.893 128.048 851.501 127.632 851.245 127.152C850.989 126.656 850.861 126.04 850.861 125.304C850.861 124.088 851.333 123.176 852.277 122.568C853.221 121.96 854.477 121.656 856.045 121.656C856.861 121.656 857.637 121.736 858.373 121.896C859.109 122.056 859.869 122.32 860.653 122.688L859.573 125.256C858.933 124.984 858.325 124.76 857.749 124.584C857.173 124.392 856.589 124.296 855.997 124.296C854.941 124.296 854.413 124.584 854.413 125.16C854.413 125.368 854.477 125.56 854.605 125.736C854.749 125.896 855.013 126.072 855.397 126.264C855.797 126.456 856.381 126.712 857.149 127.032C857.901 127.336 858.549 127.656 859.093 127.992C859.637 128.312 860.053 128.72 860.341 129.216C860.645 129.696 860.797 130.328 860.797 131.112Z" fill="white"/>
<circle cx="817" cy="297" r="75" fill="#7CFB40"/>
<path d="M790.366 280H784.93V265.132C784.93 264.508 784.942 263.692 784.966 262.684C785.014 261.676 785.05 260.788 785.074 260.02C784.954 260.164 784.69 260.428 784.282 260.812C783.898 261.172 783.538 261.496 783.202 261.784L780.25 264.16L777.622 260.884L785.902 254.296H790.366V280ZM815.36 267.148C815.36 269.908 815.06 272.272 814.46 274.24C813.884 276.208 812.936 277.72 811.616 278.776C810.32 279.832 808.568 280.36 806.36 280.36C803.264 280.36 800.996 279.196 799.556 276.868C798.116 274.516 797.396 271.276 797.396 267.148C797.396 264.364 797.684 261.988 798.26 260.02C798.836 258.052 799.784 256.54 801.104 255.484C802.424 254.428 804.176 253.9 806.36 253.9C809.432 253.9 811.7 255.064 813.164 257.392C814.628 259.72 815.36 262.972 815.36 267.148ZM802.796 267.148C802.796 270.076 803.048 272.284 803.552 273.772C804.056 275.236 804.992 275.968 806.36 275.968C807.704 275.968 808.64 275.236 809.168 273.772C809.696 272.308 809.96 270.1 809.96 267.148C809.96 264.22 809.696 262.012 809.168 260.524C808.64 259.036 807.704 258.292 806.36 258.292C804.992 258.292 804.056 259.036 803.552 260.524C803.048 262.012 802.796 264.22 802.796 267.148ZM833.217 253.936C835.233 253.936 836.757 254.644 837.789 256.06C838.845 257.452 839.373 259.42 839.373 261.964C839.373 264.508 838.881 266.5 837.897 267.94C836.913 269.356 835.353 270.064 833.217 270.064C831.249 270.064 829.749 269.356 828.717 267.94C827.685 266.5 827.169 264.508 827.169 261.964C827.169 259.42 827.649 257.452 828.609 256.06C829.569 254.644 831.105 253.936 833.217 253.936ZM851.469 254.296L837.213 280H833.001L847.257 254.296H851.469ZM833.253 257.608C832.149 257.608 831.597 259.072 831.597 262C831.597 264.952 832.149 266.428 833.253 266.428C834.381 266.428 834.945 264.952 834.945 262C834.945 259.072 834.381 257.608 833.253 257.608ZM851.217 264.196C853.233 264.196 854.757 264.904 855.789 266.32C856.845 267.712 857.373 269.68 857.373 272.224C857.373 274.768 856.881 276.76 855.897 278.2C854.913 279.616 853.353 280.324 851.217 280.324C849.249 280.324 847.749 279.616 846.717 278.2C845.685 276.76 845.169 274.768 845.169 272.224C845.169 269.68 845.649 267.712 846.609 266.32C847.569 264.904 849.105 264.196 851.217 264.196ZM851.253 267.868C850.149 267.868 849.597 269.332 849.597 272.26C849.597 275.212 850.149 276.688 851.253 276.688C852.381 276.688 852.945 275.212 852.945 272.26C852.945 269.332 852.381 267.868 851.253 267.868ZM785.715 294.76C786.243 294.76 786.699 294.888 787.083 295.144C787.467 295.384 787.659 295.84 787.659 296.512C787.659 297.168 787.467 297.624 787.083 297.88C786.699 298.136 786.243 298.264 785.715 298.264C785.171 298.264 784.707 298.136 784.323 297.88C783.955 297.624 783.771 297.168 783.771 296.512C783.771 295.84 783.955 295.384 784.323 295.144C784.707 294.888 785.171 294.76 785.715 294.76ZM787.491 299.896V313H783.915V299.896H787.491ZM798.667 299.656C800.075 299.656 801.203 300.04 802.051 300.808C802.899 301.56 803.323 302.776 803.323 304.456V313H799.747V305.344C799.747 304.4 799.579 303.696 799.243 303.232C798.907 302.752 798.371 302.512 797.635 302.512C796.547 302.512 795.803 302.888 795.403 303.64C795.003 304.376 794.803 305.44 794.803 306.832V313H791.227V299.896H793.963L794.443 301.576H794.635C795.051 300.904 795.619 300.416 796.339 300.112C797.075 299.808 797.851 299.656 798.667 299.656ZM808.801 294.76C809.329 294.76 809.785 294.888 810.169 295.144C810.553 295.384 810.745 295.84 810.745 296.512C810.745 297.168 810.553 297.624 810.169 297.88C809.785 298.136 809.329 298.264 808.801 298.264C808.257 298.264 807.793 298.136 807.409 297.88C807.041 297.624 806.857 297.168 806.857 296.512C806.857 295.84 807.041 295.384 807.409 295.144C807.793 294.888 808.257 294.76 808.801 294.76ZM810.577 299.896V313H807.001V299.896H810.577ZM819.833 310.384C820.233 310.384 820.617 310.344 820.985 310.264C821.353 310.184 821.721 310.088 822.089 309.976V312.64C821.705 312.8 821.225 312.936 820.649 313.048C820.089 313.176 819.473 313.24 818.801 313.24C818.017 313.24 817.313 313.112 816.689 312.856C816.081 312.6 815.593 312.16 815.225 311.536C814.873 310.896 814.697 310.016 814.697 308.896V302.584H812.993V301.072L814.961 299.872L815.993 297.112H818.273V299.896H821.945V302.584H818.273V308.896C818.273 309.392 818.417 309.768 818.705 310.024C818.993 310.264 819.369 310.384 819.833 310.384ZM826.52 294.76C827.048 294.76 827.504 294.888 827.888 295.144C828.272 295.384 828.464 295.84 828.464 296.512C828.464 297.168 828.272 297.624 827.888 297.88C827.504 298.136 827.048 298.264 826.52 298.264C825.976 298.264 825.512 298.136 825.128 297.88C824.76 297.624 824.576 297.168 824.576 296.512C824.576 295.84 824.76 295.384 825.128 295.144C825.512 294.888 825.976 294.76 826.52 294.76ZM828.296 299.896V313H824.72V299.896H828.296ZM837.408 299.632C839.168 299.632 840.512 300.016 841.44 300.784C842.384 301.536 842.856 302.696 842.856 304.264V313H840.36L839.664 311.224H839.568C839.008 311.928 838.416 312.44 837.792 312.76C837.168 313.08 836.312 313.24 835.224 313.24C834.056 313.24 833.088 312.904 832.32 312.232C831.552 311.544 831.168 310.496 831.168 309.088C831.168 307.696 831.656 306.672 832.632 306.016C833.608 305.344 835.072 304.976 837.024 304.912L839.304 304.84V304.264C839.304 303.576 839.12 303.072 838.752 302.752C838.4 302.432 837.904 302.272 837.264 302.272C836.624 302.272 836 302.368 835.392 302.56C834.784 302.736 834.176 302.96 833.568 303.232L832.392 300.808C833.096 300.44 833.872 300.152 834.72 299.944C835.584 299.736 836.48 299.632 837.408 299.632ZM837.912 306.976C836.76 307.008 835.96 307.216 835.512 307.6C835.064 307.984 834.84 308.488 834.84 309.112C834.84 309.656 835 310.048 835.32 310.288C835.64 310.512 836.056 310.624 836.568 310.624C837.336 310.624 837.984 310.4 838.512 309.952C839.04 309.488 839.304 308.84 839.304 308.008V306.928L837.912 306.976ZM850.093 313H846.517V294.76H850.093V313ZM782.378 339.424C782.378 341.6 781.802 343.28 780.65 344.464C779.514 345.648 777.962 346.24 775.994 346.24C774.778 346.24 773.69 345.976 772.73 345.448C771.786 344.92 771.042 344.152 770.498 343.144C769.954 342.12 769.682 340.88 769.682 339.424C769.682 337.248 770.25 335.576 771.386 334.408C772.522 333.24 774.082 332.656 776.066 332.656C777.298 332.656 778.386 332.92 779.33 333.448C780.274 333.976 781.018 334.744 781.562 335.752C782.106 336.744 782.378 337.968 782.378 339.424ZM773.33 339.424C773.33 340.72 773.538 341.704 773.954 342.376C774.386 343.032 775.082 343.36 776.042 343.36C776.986 343.36 777.666 343.032 778.082 342.376C778.514 341.704 778.73 340.72 778.73 339.424C778.73 338.128 778.514 337.16 778.082 336.52C777.666 335.864 776.978 335.536 776.018 335.536C775.074 335.536 774.386 335.864 773.954 336.52C773.538 337.16 773.33 338.128 773.33 339.424ZM792.581 335.584H789.485V346H785.909V335.584H783.941V333.856L785.909 332.896V331.936C785.909 330.816 786.093 329.952 786.461 329.344C786.845 328.72 787.381 328.28 788.069 328.024C788.773 327.768 789.597 327.64 790.541 327.64C791.245 327.64 791.877 327.696 792.437 327.808C793.013 327.92 793.477 328.048 793.829 328.192L792.917 330.808C792.645 330.728 792.349 330.656 792.029 330.592C791.709 330.512 791.341 330.472 790.925 330.472C790.429 330.472 790.061 330.624 789.821 330.928C789.597 331.232 789.485 331.616 789.485 332.08V332.896H792.581V335.584ZM801.869 335.584H798.773V346H795.197V335.584H793.229V333.856L795.197 332.896V331.936C795.197 330.816 795.381 329.952 795.749 329.344C796.133 328.72 796.669 328.28 797.357 328.024C798.061 327.768 798.885 327.64 799.829 327.64C800.533 327.64 801.165 327.696 801.725 327.808C802.301 327.92 802.765 328.048 803.117 328.192L802.205 330.808C801.933 330.728 801.637 330.656 801.317 330.592C800.997 330.512 800.629 330.472 800.213 330.472C799.717 330.472 799.349 330.624 799.109 330.928C798.885 331.232 798.773 331.616 798.773 332.08V332.896H801.869V335.584ZM809.319 332.656C811.127 332.656 812.559 333.176 813.615 334.216C814.671 335.24 815.199 336.704 815.199 338.608V340.336H806.751C806.783 341.344 807.079 342.136 807.639 342.712C808.215 343.288 809.007 343.576 810.015 343.576C810.863 343.576 811.631 343.496 812.319 343.336C813.007 343.16 813.719 342.896 814.455 342.544V345.304C813.815 345.624 813.135 345.856 812.415 346C811.711 346.16 810.855 346.24 809.847 346.24C808.535 346.24 807.375 346 806.367 345.52C805.359 345.024 804.567 344.28 803.991 343.288C803.415 342.296 803.127 341.048 803.127 339.544C803.127 338.008 803.383 336.736 803.895 335.728C804.423 334.704 805.151 333.936 806.079 333.424C807.007 332.912 808.087 332.656 809.319 332.656ZM809.343 335.2C808.655 335.2 808.079 335.424 807.615 335.872C807.167 336.32 806.903 337.016 806.823 337.96H811.839C811.823 337.16 811.615 336.504 811.215 335.992C810.815 335.464 810.191 335.2 809.343 335.2ZM825.419 332.656C825.595 332.656 825.803 332.664 826.043 332.68C826.283 332.696 826.475 332.72 826.619 332.752L826.355 336.112C826.243 336.08 826.075 336.056 825.851 336.04C825.643 336.008 825.459 335.992 825.299 335.992C824.691 335.992 824.107 336.104 823.547 336.328C822.987 336.536 822.531 336.88 822.179 337.36C821.843 337.84 821.675 338.496 821.675 339.328V346H818.099V332.896H820.811L821.339 335.104H821.507C821.891 334.432 822.419 333.856 823.091 333.376C823.763 332.896 824.539 332.656 825.419 332.656ZM830.797 327.76C831.325 327.76 831.781 327.888 832.165 328.144C832.549 328.384 832.741 328.84 832.741 329.512C832.741 330.168 832.549 330.624 832.165 330.88C831.781 331.136 831.325 331.264 830.797 331.264C830.253 331.264 829.789 331.136 829.405 330.88C829.037 330.624 828.853 330.168 828.853 329.512C828.853 328.84 829.037 328.384 829.405 328.144C829.789 327.888 830.253 327.76 830.797 327.76ZM832.573 332.896V346H828.997V332.896H832.573ZM843.75 332.656C845.158 332.656 846.286 333.04 847.134 333.808C847.982 334.56 848.406 335.776 848.406 337.456V346H844.83V338.344C844.83 337.4 844.662 336.696 844.326 336.232C843.99 335.752 843.454 335.512 842.718 335.512C841.63 335.512 840.886 335.888 840.486 336.64C840.086 337.376 839.886 338.44 839.886 339.832V346H836.31V332.896H839.046L839.526 334.576H839.718C840.134 333.904 840.702 333.416 841.422 333.112C842.158 332.808 842.934 332.656 843.75 332.656ZM856.331 332.656C857.947 332.656 859.211 333.296 860.123 334.576H860.219L860.507 332.896H863.531V346.024C863.531 347.896 862.979 349.32 861.875 350.296C860.771 351.272 859.139 351.76 856.979 351.76C856.051 351.76 855.187 351.704 854.387 351.592C853.603 351.48 852.835 351.28 852.083 350.992V348.136C853.699 348.808 855.403 349.144 857.195 349.144C859.035 349.144 859.955 348.152 859.955 346.168V345.904C859.955 345.632 859.963 345.352 859.979 345.064C860.011 344.776 860.035 344.52 860.051 344.296H859.955C859.507 344.984 858.971 345.48 858.347 345.784C857.723 346.088 857.019 346.24 856.235 346.24C854.683 346.24 853.467 345.648 852.587 344.464C851.723 343.264 851.291 341.6 851.291 339.472C851.291 337.328 851.739 335.656 852.635 334.456C853.531 333.256 854.763 332.656 856.331 332.656ZM857.459 335.56C855.779 335.56 854.939 336.88 854.939 339.52C854.939 342.128 855.795 343.432 857.507 343.432C858.419 343.432 859.091 343.176 859.523 342.664C859.971 342.136 860.195 341.224 860.195 339.928V339.496C860.195 338.088 859.979 337.08 859.547 336.472C859.115 335.864 858.419 335.56 857.459 335.56Z" fill="#232323"/>
<path d="M708 266C710.761 266 713.005 268.239 712.95 271C711.794 328.814 690.625 384.501 652.967 428.52C614.224 473.805 560.578 503.761 501.699 512.987C442.82 522.212 382.583 510.1 331.846 478.834C281.108 447.569 243.209 399.206 224.981 342.465C206.753 285.724 209.394 224.338 232.429 169.372C255.464 114.407 297.377 69.4785 350.612 42.6865C403.847 15.8945 464.903 9.00157 522.771 23.2503C579.02 37.1002 628.661 70.039 663.272 116.363C664.925 118.575 664.405 121.702 662.16 123.311L475.652 256.936C471.701 259.766 473.703 266 478.564 266H708Z" fill="white"/>
<path d="M697.716 195.761C700.361 194.969 703.153 196.471 703.891 199.131C708.606 216.116 711.511 233.552 712.558 251.148C712.722 253.904 710.569 256.23 707.809 256.339L502.548 264.439C496.675 264.671 495.287 256.338 500.918 254.653L697.716 195.761Z" fill="#7CFB40"/>
<path d="M667.924 131.719C670.233 130.206 673.337 130.849 674.804 133.188C684.168 148.122 691.927 164.004 697.951 180.57C698.894 183.165 697.493 186.009 694.88 186.9L500.46 253.222C494.897 255.119 491.189 247.529 496.105 244.307L667.924 131.719Z" fill="#FF5353"/>
<circle cx="463" cy="266" r="220" fill="#232323"/>
<path d="M368.192 167.152C371.136 167.152 373.28 167.792 374.624 169.072C375.989 170.331 376.672 172.069 376.672 174.288C376.672 175.611 376.394 176.859 375.84 178.032C375.285 179.184 374.357 180.112 373.056 180.816C371.776 181.52 370.026 181.872 367.808 181.872H365.728V190H360.896V167.152H368.192ZM367.936 171.12H365.728V177.904H367.328C368.693 177.904 369.77 177.637 370.56 177.104C371.37 176.549 371.776 175.664 371.776 174.448C371.776 172.229 370.496 171.12 367.936 171.12ZM396.477 181.232C396.477 184.133 395.709 186.373 394.173 187.952C392.659 189.531 390.589 190.32 387.965 190.32C386.344 190.32 384.893 189.968 383.613 189.264C382.355 188.56 381.363 187.536 380.637 186.192C379.912 184.827 379.549 183.173 379.549 181.232C379.549 178.331 380.307 176.101 381.821 174.544C383.336 172.987 385.416 172.208 388.061 172.208C389.704 172.208 391.155 172.56 392.413 173.264C393.672 173.968 394.664 174.992 395.389 176.336C396.115 177.659 396.477 179.291 396.477 181.232ZM384.413 181.232C384.413 182.96 384.691 184.272 385.245 185.168C385.821 186.043 386.749 186.48 388.029 186.48C389.288 186.48 390.195 186.043 390.749 185.168C391.325 184.272 391.613 182.96 391.613 181.232C391.613 179.504 391.325 178.213 390.749 177.36C390.195 176.485 389.277 176.048 387.997 176.048C386.739 176.048 385.821 176.485 385.245 177.36C384.691 178.213 384.413 179.504 384.413 181.232ZM407.778 186.512C408.311 186.512 408.823 186.459 409.314 186.352C409.805 186.245 410.295 186.117 410.786 185.968V189.52C410.274 189.733 409.634 189.915 408.866 190.064C408.119 190.235 407.298 190.32 406.402 190.32C405.357 190.32 404.418 190.149 403.586 189.808C402.775 189.467 402.125 188.88 401.634 188.048C401.165 187.195 400.93 186.021 400.93 184.528V176.112H398.658V174.096L401.282 172.496L402.658 168.816H405.698V172.528H410.594V176.112H405.698V184.528C405.698 185.189 405.89 185.691 406.274 186.032C406.658 186.352 407.159 186.512 407.778 186.512ZM421.461 172.176C423.808 172.176 425.6 172.688 426.837 173.712C428.096 174.715 428.725 176.261 428.725 178.352V190H425.397L424.469 187.632H424.341C423.594 188.571 422.805 189.253 421.973 189.68C421.141 190.107 420 190.32 418.549 190.32C416.992 190.32 415.701 189.872 414.677 188.976C413.653 188.059 413.141 186.661 413.141 184.784C413.141 182.928 413.792 181.563 415.093 180.688C416.394 179.792 418.346 179.301 420.949 179.216L423.989 179.12V178.352C423.989 177.435 423.744 176.763 423.253 176.336C422.784 175.909 422.122 175.696 421.269 175.696C420.416 175.696 419.584 175.824 418.773 176.08C417.962 176.315 417.152 176.613 416.341 176.976L414.773 173.744C415.712 173.253 416.746 172.869 417.877 172.592C419.029 172.315 420.224 172.176 421.461 172.176ZM422.133 181.968C420.597 182.011 419.53 182.288 418.933 182.8C418.336 183.312 418.037 183.984 418.037 184.816C418.037 185.541 418.25 186.064 418.677 186.384C419.104 186.683 419.658 186.832 420.341 186.832C421.365 186.832 422.229 186.533 422.933 185.936C423.637 185.317 423.989 184.453 423.989 183.344V181.904L422.133 181.968ZM440.965 186.512C441.499 186.512 442.011 186.459 442.501 186.352C442.992 186.245 443.483 186.117 443.973 185.968V189.52C443.461 189.733 442.821 189.915 442.053 190.064C441.307 190.235 440.485 190.32 439.589 190.32C438.544 190.32 437.605 190.149 436.773 189.808C435.963 189.467 435.312 188.88 434.821 188.048C434.352 187.195 434.117 186.021 434.117 184.528V176.112H431.845V174.096L434.469 172.496L435.845 168.816H438.885V172.528H443.781V176.112H438.885V184.528C438.885 185.189 439.077 185.691 439.461 186.032C439.845 186.352 440.347 186.512 440.965 186.512ZM463.352 181.232C463.352 184.133 462.584 186.373 461.048 187.952C459.534 189.531 457.464 190.32 454.84 190.32C453.219 190.32 451.768 189.968 450.488 189.264C449.23 188.56 448.238 187.536 447.512 186.192C446.787 184.827 446.424 183.173 446.424 181.232C446.424 178.331 447.182 176.101 448.696 174.544C450.211 172.987 452.291 172.208 454.936 172.208C456.579 172.208 458.03 172.56 459.288 173.264C460.547 173.968 461.539 174.992 462.264 176.336C462.99 177.659 463.352 179.291 463.352 181.232ZM451.288 181.232C451.288 182.96 451.566 184.272 452.12 185.168C452.696 186.043 453.624 186.48 454.904 186.48C456.163 186.48 457.07 186.043 457.624 185.168C458.2 184.272 458.488 182.96 458.488 181.232C458.488 179.504 458.2 178.213 457.624 177.36C457.07 176.485 456.152 176.048 454.872 176.048C453.614 176.048 452.696 176.485 452.12 177.36C451.566 178.213 451.288 179.504 451.288 181.232ZM484.789 190H479.957V171.184H473.749V167.152H490.997V171.184H484.789V190ZM507.759 181.232C507.759 184.133 506.991 186.373 505.455 187.952C503.94 189.531 501.871 190.32 499.247 190.32C497.625 190.32 496.175 189.968 494.895 189.264C493.636 188.56 492.644 187.536 491.919 186.192C491.193 184.827 490.831 183.173 490.831 181.232C490.831 178.331 491.588 176.101 493.103 174.544C494.617 172.987 496.697 172.208 499.343 172.208C500.985 172.208 502.436 172.56 503.695 173.264C504.953 173.968 505.945 174.992 506.671 176.336C507.396 177.659 507.759 179.291 507.759 181.232ZM495.695 181.232C495.695 182.96 495.972 184.272 496.527 185.168C497.103 186.043 498.031 186.48 499.311 186.48C500.569 186.48 501.476 186.043 502.031 185.168C502.607 184.272 502.895 182.96 502.895 181.232C502.895 179.504 502.607 178.213 502.031 177.36C501.476 176.485 500.559 176.048 499.279 176.048C498.02 176.048 497.103 176.485 496.527 177.36C495.972 178.213 495.695 179.504 495.695 181.232ZM516.467 176.56C516.467 177.221 516.435 177.883 516.371 178.544C516.328 179.184 516.275 179.835 516.211 180.496H516.275C516.595 180.048 516.926 179.6 517.267 179.152C517.608 178.683 517.971 178.245 518.355 177.84L523.251 172.528H528.627L521.683 180.112L529.043 190H523.539L518.515 182.928L516.467 184.56V190H511.699V165.68H516.467V176.56ZM538.743 172.208C541.154 172.208 543.063 172.901 544.471 174.288C545.879 175.653 546.583 177.605 546.583 180.144V182.448H535.319C535.362 183.792 535.756 184.848 536.503 185.616C537.271 186.384 538.327 186.768 539.671 186.768C540.802 186.768 541.826 186.661 542.743 186.448C543.66 186.213 544.61 185.861 545.591 185.392V189.072C544.738 189.499 543.831 189.808 542.871 190C541.932 190.213 540.791 190.32 539.447 190.32C537.698 190.32 536.151 190 534.807 189.36C533.463 188.699 532.407 187.707 531.639 186.384C530.871 185.061 530.487 183.397 530.487 181.392C530.487 179.344 530.828 177.648 531.511 176.304C532.215 174.939 533.186 173.915 534.423 173.232C535.66 172.549 537.1 172.208 538.743 172.208ZM538.775 175.6C537.858 175.6 537.09 175.899 536.471 176.496C535.874 177.093 535.522 178.021 535.415 179.28H542.103C542.082 178.213 541.804 177.339 541.271 176.656C540.738 175.952 539.906 175.6 538.775 175.6ZM560.369 172.208C562.246 172.208 563.75 172.72 564.881 173.744C566.012 174.747 566.577 176.368 566.577 178.608V190H561.809V179.792C561.809 178.533 561.585 177.595 561.137 176.976C560.689 176.336 559.974 176.016 558.993 176.016C557.542 176.016 556.55 176.517 556.017 177.52C555.484 178.501 555.217 179.92 555.217 181.776V190H550.449V172.528H554.097L554.737 174.768H554.993C555.548 173.872 556.305 173.221 557.265 172.816C558.246 172.411 559.281 172.208 560.369 172.208ZM377.946 234H373.114V215.184H366.906V211.152H384.154V215.184H377.946V234ZM400.915 225.232C400.915 228.133 400.147 230.373 398.611 231.952C397.096 233.531 395.027 234.32 392.403 234.32C390.782 234.32 389.331 233.968 388.051 233.264C386.792 232.56 385.8 231.536 385.075 230.192C384.35 228.827 383.987 227.173 383.987 225.232C383.987 222.331 384.744 220.101 386.259 218.544C387.774 216.987 389.854 216.208 392.499 216.208C394.142 216.208 395.592 216.56 396.851 217.264C398.11 217.968 399.102 218.992 399.827 220.336C400.552 221.659 400.915 223.291 400.915 225.232ZM388.851 225.232C388.851 226.96 389.128 228.272 389.683 229.168C390.259 230.043 391.187 230.48 392.467 230.48C393.726 230.48 394.632 230.043 395.187 229.168C395.763 228.272 396.051 226.96 396.051 225.232C396.051 223.504 395.763 222.213 395.187 221.36C394.632 220.485 393.715 220.048 392.435 220.048C391.176 220.048 390.259 220.485 389.683 221.36C389.128 222.213 388.851 223.504 388.851 225.232ZM412.215 230.512C412.749 230.512 413.261 230.459 413.751 230.352C414.242 230.245 414.733 230.117 415.223 229.968V233.52C414.711 233.733 414.071 233.915 413.303 234.064C412.557 234.235 411.735 234.32 410.839 234.32C409.794 234.32 408.855 234.149 408.023 233.808C407.213 233.467 406.562 232.88 406.071 232.048C405.602 231.195 405.367 230.021 405.367 228.528V220.112H403.095V218.096L405.719 216.496L407.095 212.816H410.135V216.528H415.031V220.112H410.135V228.528C410.135 229.189 410.327 229.691 410.711 230.032C411.095 230.352 411.597 230.512 412.215 230.512ZM425.898 216.176C428.245 216.176 430.037 216.688 431.274 217.712C432.533 218.715 433.162 220.261 433.162 222.352V234H429.834L428.906 231.632H428.778C428.032 232.571 427.242 233.253 426.41 233.68C425.578 234.107 424.437 234.32 422.986 234.32C421.429 234.32 420.138 233.872 419.114 232.976C418.09 232.059 417.578 230.661 417.578 228.784C417.578 226.928 418.229 225.563 419.53 224.688C420.832 223.792 422.784 223.301 425.386 223.216L428.426 223.12V222.352C428.426 221.435 428.181 220.763 427.69 220.336C427.221 219.909 426.56 219.696 425.706 219.696C424.853 219.696 424.021 219.824 423.21 220.08C422.4 220.315 421.589 220.613 420.778 220.976L419.21 217.744C420.149 217.253 421.184 216.869 422.314 216.592C423.466 216.315 424.661 216.176 425.898 216.176ZM426.57 225.968C425.034 226.011 423.968 226.288 423.37 226.8C422.773 227.312 422.474 227.984 422.474 228.816C422.474 229.541 422.688 230.064 423.114 230.384C423.541 230.683 424.096 230.832 424.778 230.832C425.802 230.832 426.666 230.533 427.37 229.936C428.074 229.317 428.426 228.453 428.426 227.344V225.904L426.57 225.968ZM442.811 234H438.043V209.68H442.811V234ZM469.961 227.664C469.961 229.691 469.225 231.312 467.753 232.528C466.303 233.723 464.233 234.32 461.545 234.32C459.135 234.32 456.98 233.861 455.081 232.944V228.432C456.169 228.901 457.289 229.339 458.441 229.744C459.615 230.128 460.777 230.32 461.929 230.32C463.124 230.32 463.967 230.096 464.457 229.648C464.969 229.179 465.225 228.592 465.225 227.888C465.225 227.312 465.023 226.821 464.617 226.416C464.233 226.011 463.711 225.637 463.049 225.296C462.388 224.933 461.631 224.549 460.777 224.144C460.244 223.888 459.668 223.589 459.049 223.248C458.431 222.885 457.833 222.448 457.257 221.936C456.703 221.403 456.244 220.763 455.881 220.016C455.519 219.269 455.337 218.373 455.337 217.328C455.337 215.28 456.031 213.691 457.417 212.56C458.804 211.408 460.692 210.832 463.081 210.832C464.276 210.832 465.407 210.971 466.473 211.248C467.561 211.525 468.692 211.92 469.865 212.432L468.297 216.208C467.252 215.781 466.313 215.451 465.481 215.216C464.649 214.981 463.796 214.864 462.921 214.864C462.004 214.864 461.3 215.077 460.809 215.504C460.319 215.931 460.073 216.485 460.073 217.168C460.073 217.979 460.436 218.619 461.161 219.088C461.887 219.557 462.964 220.133 464.393 220.816C465.567 221.371 466.559 221.947 467.369 222.544C468.201 223.141 468.841 223.845 469.289 224.656C469.737 225.467 469.961 226.469 469.961 227.664ZM489.762 216.528V234H486.114L485.474 231.76H485.218C484.664 232.656 483.896 233.307 482.914 233.712C481.954 234.117 480.93 234.32 479.842 234.32C477.965 234.32 476.461 233.819 475.33 232.816C474.2 231.792 473.634 230.16 473.634 227.92V216.528H478.402V226.736C478.402 227.973 478.626 228.912 479.074 229.552C479.522 230.192 480.237 230.512 481.218 230.512C482.669 230.512 483.661 230.021 484.194 229.04C484.728 228.037 484.994 226.608 484.994 224.752V216.528H489.762ZM504.49 216.208C506.452 216.208 508.042 216.976 509.258 218.512C510.474 220.027 511.082 222.267 511.082 225.232C511.082 228.197 510.452 230.459 509.194 232.016C507.935 233.552 506.324 234.32 504.362 234.32C503.103 234.32 502.1 234.096 501.354 233.648C500.607 233.179 499.999 232.656 499.53 232.08H499.274C499.444 232.976 499.53 233.829 499.53 234.64V241.68H494.762V216.528H498.634L499.306 218.8H499.53C499.999 218.096 500.628 217.488 501.418 216.976C502.207 216.464 503.231 216.208 504.49 216.208ZM502.954 220.016C501.716 220.016 500.842 220.4 500.33 221.168C499.839 221.936 499.572 223.109 499.53 224.688V225.2C499.53 226.885 499.775 228.187 500.266 229.104C500.778 230 501.695 230.448 503.018 230.448C504.106 230.448 504.906 230 505.418 229.104C505.951 228.187 506.218 226.875 506.218 225.168C506.218 221.733 505.13 220.016 502.954 220.016ZM524.74 216.208C526.702 216.208 528.292 216.976 529.508 218.512C530.724 220.027 531.332 222.267 531.332 225.232C531.332 228.197 530.702 230.459 529.444 232.016C528.185 233.552 526.574 234.32 524.612 234.32C523.353 234.32 522.35 234.096 521.604 233.648C520.857 233.179 520.249 232.656 519.78 232.08H519.524C519.694 232.976 519.78 233.829 519.78 234.64V241.68H515.012V216.528H518.884L519.556 218.8H519.78C520.249 218.096 520.878 217.488 521.668 216.976C522.457 216.464 523.481 216.208 524.74 216.208ZM523.204 220.016C521.966 220.016 521.092 220.4 520.58 221.168C520.089 221.936 519.822 223.109 519.78 224.688V225.2C519.78 226.885 520.025 228.187 520.516 229.104C521.028 230 521.945 230.448 523.268 230.448C524.356 230.448 525.156 230 525.668 229.104C526.201 228.187 526.468 226.875 526.468 225.168C526.468 221.733 525.38 220.016 523.204 220.016ZM540.03 234H535.262V209.68H540.03V234ZM542.516 216.528H547.732L551.028 226.352C551.198 226.821 551.326 227.312 551.412 227.824C551.497 228.315 551.561 228.837 551.604 229.392H551.7C551.764 228.837 551.849 228.315 551.956 227.824C552.084 227.312 552.222 226.821 552.372 226.352L555.604 216.528H560.724L553.332 236.24C552.67 238.053 551.7 239.408 550.42 240.304C549.161 241.221 547.7 241.68 546.036 241.68C545.502 241.68 545.033 241.648 544.628 241.584C544.244 241.541 543.902 241.488 543.604 241.424V237.648C543.838 237.691 544.116 237.733 544.436 237.776C544.777 237.819 545.129 237.84 545.492 237.84C546.494 237.84 547.284 237.531 547.86 236.912C548.457 236.315 548.894 235.589 549.172 234.736L549.46 233.872L542.516 216.528Z" fill="white"/>
<path d="M306.432 312H296.768V285.568C296.768 284.459 296.789 283.008 296.832 281.216C296.917 279.424 296.981 277.845 297.024 276.48C296.811 276.736 296.341 277.205 295.616 277.888C294.933 278.528 294.293 279.104 293.696 279.616L288.448 283.84L283.776 278.016L298.496 266.304H306.432V312ZM350.865 289.152C350.865 294.059 350.332 298.261 349.265 301.76C348.241 305.259 346.556 307.947 344.209 309.824C341.905 311.701 338.79 312.64 334.865 312.64C329.361 312.64 325.329 310.571 322.769 306.432C320.209 302.251 318.929 296.491 318.929 289.152C318.929 284.203 319.441 279.979 320.465 276.48C321.489 272.981 323.174 270.293 325.521 268.416C327.868 266.539 330.982 265.6 334.865 265.6C340.326 265.6 344.358 267.669 346.961 271.808C349.564 275.947 350.865 281.728 350.865 289.152ZM328.529 289.152C328.529 294.357 328.977 298.283 329.873 300.928C330.769 303.531 332.433 304.832 334.865 304.832C337.254 304.832 338.918 303.531 339.857 300.928C340.796 298.325 341.265 294.4 341.265 289.152C341.265 283.947 340.796 280.021 339.857 277.376C338.918 274.731 337.254 273.408 334.865 273.408C332.433 273.408 330.769 274.731 329.873 277.376C328.977 280.021 328.529 283.947 328.529 289.152ZM387.49 289.152C387.49 294.059 386.957 298.261 385.89 301.76C384.866 305.259 383.181 307.947 380.834 309.824C378.53 311.701 375.415 312.64 371.49 312.64C365.986 312.64 361.954 310.571 359.394 306.432C356.834 302.251 355.554 296.491 355.554 289.152C355.554 284.203 356.066 279.979 357.09 276.48C358.114 272.981 359.799 270.293 362.146 268.416C364.493 266.539 367.607 265.6 371.49 265.6C376.951 265.6 380.983 267.669 383.586 271.808C386.189 275.947 387.49 281.728 387.49 289.152ZM365.154 289.152C365.154 294.357 365.602 298.283 366.498 300.928C367.394 303.531 369.058 304.832 371.49 304.832C373.879 304.832 375.543 303.531 376.482 300.928C377.421 298.325 377.89 294.4 377.89 289.152C377.89 283.947 377.421 280.021 376.482 277.376C375.543 274.731 373.879 273.408 371.49 273.408C369.058 273.408 367.394 274.731 366.498 277.376C365.602 280.021 365.154 283.947 365.154 289.152ZM404.211 305.28C403.656 307.541 402.867 310.016 401.843 312.704C400.819 315.392 399.774 317.909 398.707 320.256H391.859C392.456 317.739 393.054 315.051 393.651 312.192C394.248 309.333 394.696 306.795 394.995 304.576H403.763L404.211 305.28ZM442.365 289.152C442.365 294.059 441.832 298.261 440.765 301.76C439.741 305.259 438.056 307.947 435.709 309.824C433.405 311.701 430.29 312.64 426.365 312.64C420.861 312.64 416.829 310.571 414.269 306.432C411.709 302.251 410.429 296.491 410.429 289.152C410.429 284.203 410.941 279.979 411.965 276.48C412.989 272.981 414.674 270.293 417.021 268.416C419.368 266.539 422.482 265.6 426.365 265.6C431.826 265.6 435.858 267.669 438.461 271.808C441.064 275.947 442.365 281.728 442.365 289.152ZM420.029 289.152C420.029 294.357 420.477 298.283 421.373 300.928C422.269 303.531 423.933 304.832 426.365 304.832C428.754 304.832 430.418 303.531 431.357 300.928C432.296 298.325 432.765 294.4 432.765 289.152C432.765 283.947 432.296 280.021 431.357 277.376C430.418 274.731 428.754 273.408 426.365 273.408C423.933 273.408 422.269 274.731 421.373 277.376C420.477 280.021 420.029 283.947 420.029 289.152ZM478.99 289.152C478.99 294.059 478.457 298.261 477.39 301.76C476.366 305.259 474.681 307.947 472.334 309.824C470.03 311.701 466.915 312.64 462.99 312.64C457.486 312.64 453.454 310.571 450.894 306.432C448.334 302.251 447.054 296.491 447.054 289.152C447.054 284.203 447.566 279.979 448.59 276.48C449.614 272.981 451.299 270.293 453.646 268.416C455.993 266.539 459.107 265.6 462.99 265.6C468.451 265.6 472.483 267.669 475.086 271.808C477.689 275.947 478.99 281.728 478.99 289.152ZM456.654 289.152C456.654 294.357 457.102 298.283 457.998 300.928C458.894 303.531 460.558 304.832 462.99 304.832C465.379 304.832 467.043 303.531 467.982 300.928C468.921 298.325 469.39 294.4 469.39 289.152C469.39 283.947 468.921 280.021 467.982 277.376C467.043 274.731 465.379 273.408 462.99 273.408C460.558 273.408 458.894 274.731 457.998 277.376C457.102 280.021 456.654 283.947 456.654 289.152ZM515.615 289.152C515.615 294.059 515.082 298.261 514.015 301.76C512.991 305.259 511.306 307.947 508.959 309.824C506.655 311.701 503.54 312.64 499.615 312.64C494.111 312.64 490.079 310.571 487.519 306.432C484.959 302.251 483.679 296.491 483.679 289.152C483.679 284.203 484.191 279.979 485.215 276.48C486.239 272.981 487.924 270.293 490.271 268.416C492.618 266.539 495.732 265.6 499.615 265.6C505.076 265.6 509.108 267.669 511.711 271.808C514.314 275.947 515.615 281.728 515.615 289.152ZM493.279 289.152C493.279 294.357 493.727 298.283 494.623 300.928C495.519 303.531 497.183 304.832 499.615 304.832C502.004 304.832 503.668 303.531 504.607 300.928C505.546 298.325 506.015 294.4 506.015 289.152C506.015 283.947 505.546 280.021 504.607 277.376C503.668 274.731 502.004 273.408 499.615 273.408C497.183 273.408 495.519 274.731 494.623 277.376C493.727 280.021 493.279 283.947 493.279 289.152ZM532.336 305.28C531.781 307.541 530.992 310.016 529.968 312.704C528.944 315.392 527.899 317.909 526.832 320.256H519.984C520.581 317.739 521.179 315.051 521.776 312.192C522.373 309.333 522.821 306.795 523.12 304.576H531.888L532.336 305.28ZM570.49 289.152C570.49 294.059 569.957 298.261 568.89 301.76C567.866 305.259 566.181 307.947 563.834 309.824C561.53 311.701 558.415 312.64 554.49 312.64C548.986 312.64 544.954 310.571 542.394 306.432C539.834 302.251 538.554 296.491 538.554 289.152C538.554 284.203 539.066 279.979 540.09 276.48C541.114 272.981 542.799 270.293 545.146 268.416C547.493 266.539 550.607 265.6 554.49 265.6C559.951 265.6 563.983 267.669 566.586 271.808C569.189 275.947 570.49 281.728 570.49 289.152ZM548.154 289.152C548.154 294.357 548.602 298.283 549.498 300.928C550.394 303.531 552.058 304.832 554.49 304.832C556.879 304.832 558.543 303.531 559.482 300.928C560.421 298.325 560.89 294.4 560.89 289.152C560.89 283.947 560.421 280.021 559.482 277.376C558.543 274.731 556.879 273.408 554.49 273.408C552.058 273.408 550.394 274.731 549.498 277.376C548.602 280.021 548.154 283.947 548.154 289.152ZM607.115 289.152C607.115 294.059 606.582 298.261 605.515 301.76C604.491 305.259 602.806 307.947 600.459 309.824C598.155 311.701 595.04 312.64 591.115 312.64C585.611 312.64 581.579 310.571 579.019 306.432C576.459 302.251 575.179 296.491 575.179 289.152C575.179 284.203 575.691 279.979 576.715 276.48C577.739 272.981 579.424 270.293 581.771 268.416C584.118 266.539 587.232 265.6 591.115 265.6C596.576 265.6 600.608 267.669 603.211 271.808C605.814 275.947 607.115 281.728 607.115 289.152ZM584.779 289.152C584.779 294.357 585.227 298.283 586.123 300.928C587.019 303.531 588.683 304.832 591.115 304.832C593.504 304.832 595.168 303.531 596.107 300.928C597.046 298.325 597.515 294.4 597.515 289.152C597.515 283.947 597.046 280.021 596.107 277.376C595.168 274.731 593.504 273.408 591.115 273.408C588.683 273.408 587.019 274.731 586.123 277.376C585.227 280.021 584.779 283.947 584.779 289.152ZM643.74 289.152C643.74 294.059 643.207 298.261 642.14 301.76C641.116 305.259 639.431 307.947 637.084 309.824C634.78 311.701 631.665 312.64 627.74 312.64C622.236 312.64 618.204 310.571 615.644 306.432C613.084 302.251 611.804 296.491 611.804 289.152C611.804 284.203 612.316 279.979 613.34 276.48C614.364 272.981 616.049 270.293 618.396 268.416C620.743 266.539 623.857 265.6 627.74 265.6C633.201 265.6 637.233 267.669 639.836 271.808C642.439 275.947 643.74 281.728 643.74 289.152ZM621.404 289.152C621.404 294.357 621.852 298.283 622.748 300.928C623.644 303.531 625.308 304.832 627.74 304.832C630.129 304.832 631.793 303.531 632.732 300.928C633.671 298.325 634.14 294.4 634.14 289.152C634.14 283.947 633.671 280.021 632.732 277.376C631.793 274.731 630.129 273.408 627.74 273.408C625.308 273.408 623.644 274.731 622.748 277.376C621.852 280.021 621.404 283.947 621.404 289.152Z" fill="white"/>
</svg>
